<svg width="1440" height="670" viewBox="0 0 1440 670" fill="none" xmlns="http://www.w3.org/2000/svg">
<g id="achtergrond">
<g id="lucht">
<g id="lucht_2">
<path id="meeuw" d="M292 36.7775L311.679 16.8564H323.577L334.103 7.66211H356.986L354.697 10.2161L335.934 12.2593L325.866 21.9644L324.035 24.5184C324.035 24.5184 321.289 21.4536 320.832 21.9644C320.374 22.4752 313.052 21.9644 313.052 21.9644L296.119 36.7775H292Z" fill="#D1D4D9"/>
<path id="meeuw_2" d="M380.783 29.1154L400.462 9.19432H412.361L422.887 0H445.769L443.481 2.55398L424.717 4.59716L414.649 14.3023L412.818 16.8563C412.818 16.8563 410.072 13.7915 409.615 14.3023C409.157 14.8131 401.835 14.3023 401.835 14.3023L384.902 29.1154H380.783Z" fill="#D1D4D9"/>
<path id="meeuw_3" d="M409.157 53.6336L423.156 42.0998H431.618L439.119 36.7773H455.379L453.754 38.2536L440.41 39.4386L433.247 45.0573L431.943 46.5386C431.943 46.5386 429.994 44.7611 429.655 45.0573C429.316 45.3536 424.122 45.0573 424.122 45.0573L412.104 53.6336H409.157Z" fill="#D1D4D9"/>
</g>
</g>
<g id="zon">
<path id="zon_2" d="M1114.55 233.918C1151.26 233.918 1181.02 214.385 1181.02 190.289C1181.02 166.193 1151.26 146.66 1114.55 146.66C1077.84 146.66 1048.08 166.193 1048.08 190.289C1048.08 214.385 1077.84 233.918 1114.55 233.918Z" fill="#E7C44C"/>
</g>
<g id="zeeZand">
<g id="zee/zand">
<path id="zee" d="M1440 181H3V412H1440V181Z" fill="url(#paint0_linear)"/>
<path id="strand" d="M1440 414H3V670H1440V414Z" fill="#E8C54D"/>
<path id="groen" d="M1440 512H3V599H1440V512Z" fill="#93B374"/>
<path id="Vector" d="M0 407.517C0 407.517 14.0367 414.371 25.9971 407.517C25.9971 407.517 40.0338 415.952 50.4498 407.517C50.4498 407.517 63.9674 414.898 74.9025 407.517C74.9025 407.517 91.0155 415.952 101.414 407.517C101.414 407.517 116.489 417.007 125.867 407.517C125.867 407.517 133.16 417.007 142.503 407.517C142.503 407.517 153.417 414.371 159.136 407.517C159.136 407.517 169.534 414.371 174.215 407.517C174.215 407.517 183.571 414.898 188.77 407.517C188.77 407.517 198.127 414.371 202.288 407.517C202.288 407.517 210.083 412.789 214.244 407.517C214.244 407.517 222.043 413.844 225.162 407.517C225.162 407.517 230.881 413.316 236.599 407.517C236.599 407.517 242.837 413.844 247.517 406.462C247.517 406.462 253.236 414.371 260.511 406.462C260.511 406.462 268.31 412.262 273.51 406.462C273.51 406.462 279.747 410.68 284.428 406.462C284.428 406.462 290.146 411.735 294.822 406.462C294.822 406.462 303.14 412.789 308.34 406.462C308.34 406.462 318.739 413.316 323.415 406.462C323.415 406.462 330.176 412.789 335.371 406.462C335.371 406.462 343.689 405.935 346.808 410.68C349.927 415.425 355.649 409.098 355.649 409.098C355.649 409.098 359.287 407.517 365.006 410.68C370.724 413.844 371.243 408.571 371.243 408.571C371.243 408.571 374.362 405.935 378 410.68V412.262H0V407.517Z" fill="#D8ECED"/>
</g>
</g>
<g id="golfjes">
<g id="golfjes_2">
<path id="Vector_2" d="M135.623 298.568C137.488 301.051 139.99 303.491 142.56 302.877C145.258 302.236 145.767 298.783 148.341 298.568C151.544 298.298 152.7 303.458 155.664 302.877C157.977 302.424 157.95 299.171 160.289 298.568C163.442 297.754 164.856 303.286 168.383 302.877C171.204 302.548 171.358 298.891 174.164 298.568C177.424 298.196 178.615 302.974 182.257 303.415C183.926 303.62 186.111 302.914 188.809 299.645" stroke="#D8ECED" stroke-width="3" stroke-miterlimit="10"/>
<path id="Vector_3" d="M378.814 260.325C380.679 262.808 383.181 265.248 385.751 264.634C388.449 263.993 388.958 260.54 391.532 260.325C394.735 260.056 395.891 265.216 398.855 264.634C401.168 264.182 401.141 260.928 403.48 260.325C406.633 259.512 408.047 265.043 411.573 264.634C414.395 264.305 414.549 260.648 417.355 260.325C420.615 259.953 421.806 264.731 425.448 265.173C427.117 265.377 429.302 264.672 432 261.402" stroke="#D8ECED" stroke-width="3" stroke-miterlimit="10"/>
<path id="Vector_4" d="M214.246 222.082C216.111 224.565 218.613 227.005 221.183 226.391C223.881 225.75 224.39 222.297 226.964 222.082C230.167 221.812 231.323 226.973 234.287 226.391C236.599 225.938 236.572 222.685 238.912 222.082C242.064 221.268 243.479 226.8 247.005 226.391C249.827 226.062 249.981 222.405 252.786 222.082C256.047 221.71 257.238 226.488 260.88 226.929C262.549 227.134 264.734 226.429 267.432 223.159" stroke="#D8ECED" stroke-width="3" stroke-miterlimit="10"/>
<path id="Vector_5" d="M352.221 388.52C354.087 391.003 356.588 393.443 359.159 392.829C361.856 392.188 362.365 388.735 364.94 388.52C368.142 388.25 369.299 393.411 372.262 392.829C374.575 392.376 374.548 389.123 376.887 388.52C380.04 387.706 381.454 393.238 384.981 392.829C387.802 392.5 387.956 388.843 390.762 388.52C394.022 388.148 395.213 392.926 398.855 393.367C400.524 393.572 402.709 392.867 405.407 389.597" stroke="#D8ECED" stroke-width="3" stroke-miterlimit="10"/>
<path id="Vector_6" d="M89.7595 224.775C91.6249 227.258 94.1262 229.698 96.6968 229.084C99.3947 228.443 99.9034 224.991 102.478 224.775C105.681 224.506 106.837 229.666 109.801 229.084C112.113 228.632 112.086 225.378 114.426 224.775C117.578 223.962 118.993 229.494 122.519 229.084C125.34 228.756 125.494 225.098 128.3 224.775C131.561 224.403 132.752 229.181 136.394 229.623C138.062 229.828 140.248 229.122 142.946 225.852" stroke="#D8ECED" stroke-width="3" stroke-miterlimit="10"/>
<path id="Vector_7" d="M57 286.179C58.8654 288.663 61.3667 291.103 63.9373 290.488C66.6352 289.848 67.1439 286.395 69.7184 286.179C72.9211 285.91 74.0773 291.07 77.0411 290.488C79.3536 290.036 79.3266 286.783 81.666 286.179C84.8186 285.366 86.2331 290.898 89.7595 290.488C92.5807 290.16 92.7349 286.503 95.5406 286.179C98.8011 285.808 99.992 290.585 103.634 291.027C105.303 291.232 107.488 290.526 110.186 287.257" stroke="#D8ECED" stroke-width="3" stroke-miterlimit="10"/>
<path id="Vector_8" d="M324.471 224.775C326.919 227.258 330.199 229.698 333.571 229.084C337.101 228.443 337.776 224.991 341.156 224.775C345.353 224.506 346.871 229.666 350.76 229.084C353.782 228.632 353.755 225.378 356.826 224.775C360.958 223.962 362.815 229.494 367.44 229.084C371.14 228.756 371.341 225.098 375.021 224.775C379.299 224.403 380.86 229.181 385.639 229.623C387.824 229.828 390.692 229.122 394.23 225.852" stroke="#D8ECED" stroke-width="3" stroke-miterlimit="10"/>
<path id="Vector_9" d="M255.099 278.924C259.546 280.712 265.505 282.473 271.64 282.032C278.057 281.569 279.279 279.08 285.422 278.924C293.053 278.73 295.828 282.452 302.881 282.032C308.369 281.703 308.323 279.339 313.904 278.924C321.415 278.337 324.792 282.323 333.201 282.032C339.927 281.795 340.293 279.155 346.983 278.924C354.753 278.655 357.594 282.096 366.281 282.42C371.552 282.559 376.81 281.649 381.897 279.716" stroke="#D8ECED" stroke-width="3" stroke-miterlimit="10"/>
<path id="Vector_10" d="M138.321 256.84C142.768 258.628 148.727 260.389 154.862 259.948C161.279 259.485 162.501 256.996 168.645 256.84C176.276 256.646 179.051 260.368 186.103 259.948C191.592 259.619 191.545 257.255 197.126 256.84C204.638 256.253 208.014 260.239 216.423 259.948C223.149 259.711 223.515 257.071 230.205 256.84C237.975 256.571 240.816 260.012 249.503 260.336C254.774 260.476 260.032 259.565 265.119 257.632" stroke="#D8ECED" stroke-width="3" stroke-miterlimit="10"/>
<path id="Vector_11" d="M89.9636 348.93L106.536 343.544C106.536 343.544 117.713 346.776 121.182 348.93C124.65 351.085 137.754 346.237 137.754 346.237L163.191 352.162L184.774 343.544" stroke="#D8ECED" stroke-width="3" stroke-miterlimit="10"/>
<path id="Vector_12" d="M231.793 365.628C231.793 365.628 241.428 371.014 246.053 365.628C250.678 360.241 260.699 369.398 260.699 369.398C260.699 369.398 268.792 372.091 272.646 366.705C276.5 361.319 289.604 369.937 289.604 369.937" stroke="#D8ECED" stroke-width="3" stroke-miterlimit="10"/>
<path id="Vector_13" d="M215.991 300.992C215.991 300.992 219.846 306.378 228.71 300.992C228.71 300.992 237.189 307.994 242.97 300.992C242.97 300.992 250.678 307.994 256.459 300.992C256.459 300.992 264.167 309.61 269.178 302.608C269.178 302.608 276.115 308.533 281.896 303.146" stroke="#D8ECED" stroke-width="3" stroke-miterlimit="10"/>
<path id="Vector_14" d="M328.53 341.389C328.53 341.389 332.384 346.775 341.249 341.389C341.249 341.389 349.728 348.391 355.509 341.389C355.509 341.389 363.217 348.391 368.998 341.389C368.998 341.389 376.706 350.007 381.716 343.005C381.716 343.005 388.654 348.93 394.435 343.544" stroke="#D8ECED" stroke-width="3" stroke-miterlimit="10"/>
<path id="Vector_15" d="M129.275 383.941C129.275 383.941 133.129 389.328 141.994 383.941C141.994 383.941 150.473 390.944 156.254 383.941C156.254 383.941 163.962 390.944 169.743 383.941C169.743 383.941 177.451 392.56 182.461 385.557C182.461 385.557 189.399 391.482 195.18 386.096" stroke="#D8ECED" stroke-width="3" stroke-miterlimit="10"/>
</g>
</g>
<g id="golfjes_3">
<g id="golfjes_4">
<path id="Vector_16" d="M578.637 283.568C581.025 286.051 584.227 288.491 587.517 287.877C590.97 287.236 591.622 283.783 594.917 283.568C599.016 283.298 600.496 288.458 604.29 287.877C607.25 287.424 607.215 284.171 610.21 283.568C614.245 282.754 616.056 288.286 620.57 287.877C624.181 287.548 624.378 283.891 627.969 283.568C632.143 283.196 633.667 287.974 638.329 288.415C640.465 288.62 643.262 287.914 646.716 284.645" stroke="#D8ECED" stroke-width="3" stroke-miterlimit="10"/>
<path id="Vector_17" d="M889.922 245.325C892.31 247.808 895.511 250.248 898.802 249.634C902.255 248.993 902.906 245.54 906.201 245.325C910.301 245.056 911.781 250.216 915.574 249.634C918.534 249.182 918.5 245.928 921.494 245.325C925.53 244.512 927.34 250.043 931.854 249.634C935.465 249.305 935.662 245.648 939.254 245.325C943.427 244.953 944.952 249.731 949.614 250.173C951.75 250.377 954.547 249.672 958 246.402" stroke="#D8ECED" stroke-width="3" stroke-miterlimit="10"/>
<path id="Vector_18" d="M679.275 207.082C681.662 209.565 684.864 212.005 688.154 211.391C691.608 210.75 692.259 207.297 695.554 207.082C699.654 206.812 701.134 211.973 704.927 211.391C707.887 210.938 707.853 207.685 710.847 207.082C714.882 206.268 716.693 211.8 721.207 211.391C724.818 211.062 725.015 207.405 728.607 207.082C732.78 206.71 734.304 211.488 738.966 211.929C741.102 212.134 743.9 211.429 747.353 208.159" stroke="#D8ECED" stroke-width="3" stroke-miterlimit="10"/>
<path id="Vector_19" d="M855.883 373.52C858.271 376.003 861.472 378.443 864.763 377.829C868.216 377.188 868.867 373.735 872.163 373.52C876.262 373.25 877.742 378.411 881.536 377.829C884.496 377.376 884.461 374.123 887.456 373.52C891.491 372.706 893.301 378.238 897.815 377.829C901.426 377.5 901.624 373.843 905.215 373.52C909.389 373.148 910.913 377.926 915.575 378.367C917.711 378.572 920.508 377.867 923.961 374.597" stroke="#D8ECED" stroke-width="3" stroke-miterlimit="10"/>
<path id="Vector_20" d="M519.932 209.775C522.32 212.258 525.521 214.698 528.812 214.084C532.265 213.443 532.916 209.991 536.212 209.775C540.311 209.506 541.791 214.666 545.585 214.084C548.545 213.632 548.51 210.378 551.505 209.775C555.54 208.962 557.35 214.494 561.864 214.084C565.475 213.756 565.673 210.098 569.264 209.775C573.438 209.403 574.962 214.181 579.624 214.623C581.76 214.828 584.557 214.122 588.01 210.852" stroke="#D8ECED" stroke-width="3" stroke-miterlimit="10"/>
<path id="Vector_21" d="M478 271.179C480.388 273.663 483.589 276.103 486.88 275.488C490.333 274.848 490.984 271.395 494.28 271.179C498.379 270.91 499.859 276.07 503.653 275.488C506.613 275.036 506.578 271.783 509.572 271.179C513.608 270.366 515.418 275.898 519.932 275.488C523.543 275.16 523.741 271.503 527.332 271.179C531.505 270.808 533.03 275.585 537.692 276.027C539.828 276.232 542.625 275.526 546.078 272.257" stroke="#D8ECED" stroke-width="3" stroke-miterlimit="10"/>
<path id="Vector_22" d="M820.363 209.775C823.496 212.258 827.694 214.698 832.011 214.084C836.529 213.443 837.393 209.991 841.719 209.775C847.091 209.506 849.035 214.666 854.013 214.084C857.88 213.632 857.846 210.378 861.777 209.775C867.066 208.962 869.444 214.494 875.363 214.084C880.099 213.756 880.356 210.098 885.067 209.775C890.543 209.403 892.541 214.181 898.658 214.623C901.455 214.828 905.125 214.122 909.654 210.852" stroke="#D8ECED" stroke-width="3" stroke-miterlimit="10"/>
<path id="Vector_23" d="M731.566 263.924C737.259 265.712 744.886 267.473 752.739 267.032C760.953 266.569 762.517 264.08 770.381 263.924C780.148 263.73 783.7 267.452 792.728 267.032C799.753 266.703 799.694 264.339 806.837 263.924C816.452 263.337 820.773 267.323 831.537 267.032C840.146 266.795 840.614 264.155 849.179 263.924C859.124 263.655 862.76 267.096 873.879 267.42C880.626 267.559 887.357 266.649 893.868 264.716" stroke="#D8ECED" stroke-width="3" stroke-miterlimit="10"/>
<path id="Vector_24" d="M582.091 241.84C587.783 243.628 595.41 245.389 603.264 244.948C611.478 244.485 613.041 241.996 620.905 241.84C630.673 241.646 634.225 245.368 643.252 244.948C650.277 244.619 650.218 242.255 657.361 241.84C666.976 241.253 671.298 245.239 682.062 244.948C690.67 244.711 691.139 242.071 699.703 241.84C709.648 241.571 713.284 245.012 724.403 245.336C731.15 245.476 737.881 244.565 744.393 242.632" stroke="#D8ECED" stroke-width="3" stroke-miterlimit="10"/>
<path id="Vector_25" d="M520.193 333.93L541.406 328.544C541.406 328.544 555.712 331.776 560.152 333.93C564.592 336.085 581.365 331.237 581.365 331.237L613.924 337.162L641.55 328.544" stroke="#D8ECED" stroke-width="3" stroke-miterlimit="10"/>
<path id="Vector_26" d="M701.735 350.628C701.735 350.628 714.068 356.014 719.988 350.628C725.908 345.241 738.734 354.398 738.734 354.398C738.734 354.398 749.094 357.091 754.027 351.705C758.96 346.319 775.733 354.937 775.733 354.937" stroke="#D8ECED" stroke-width="3" stroke-miterlimit="10"/>
<path id="Vector_27" d="M681.509 285.992C681.509 285.992 686.442 291.378 697.789 285.992C697.789 285.992 708.642 292.994 716.041 285.992C716.041 285.992 725.908 292.994 733.308 285.992C733.308 285.992 743.174 294.61 749.587 287.608C749.587 287.608 758.467 293.533 765.867 288.146" stroke="#D8ECED" stroke-width="3" stroke-miterlimit="10"/>
<path id="Vector_28" d="M825.559 326.389C825.559 326.389 830.492 331.775 841.838 326.389C841.838 326.389 852.691 333.391 860.091 326.389C860.091 326.389 869.957 333.391 877.357 326.389C877.357 326.389 887.224 335.007 893.637 328.005C893.637 328.005 902.516 333.93 909.916 328.544" stroke="#D8ECED" stroke-width="3" stroke-miterlimit="10"/>
<path id="Vector_29" d="M570.512 368.941C570.512 368.941 575.446 374.328 586.792 368.941C586.792 368.941 597.645 375.944 605.045 368.941C605.045 368.941 614.911 375.944 622.311 368.941C622.311 368.941 632.177 377.56 638.591 370.557C638.591 370.557 647.47 376.482 654.87 371.096" stroke="#D8ECED" stroke-width="3" stroke-miterlimit="10"/>
</g>
</g>
<g id="golfjes_5">
<g id="golfjes_6">
<path id="Vector_30" d="M1071.62 300.568C1073.49 303.051 1075.99 305.491 1078.56 304.877C1081.26 304.236 1081.77 300.783 1084.34 300.568C1087.54 300.298 1088.7 305.458 1091.66 304.877C1093.98 304.424 1093.95 301.171 1096.29 300.568C1099.44 299.754 1100.86 305.286 1104.38 304.877C1107.2 304.548 1107.36 300.891 1110.16 300.568C1113.42 300.196 1114.62 304.974 1118.26 305.415C1119.93 305.62 1122.11 304.914 1124.81 301.645" stroke="#D8ECED" stroke-width="3" stroke-miterlimit="10"/>
<path id="Vector_31" d="M1314.81 262.325C1316.68 264.808 1319.18 267.248 1321.75 266.634C1324.45 265.993 1324.96 262.54 1327.53 262.325C1330.74 262.056 1331.89 267.216 1334.86 266.634C1337.17 266.182 1337.14 262.928 1339.48 262.325C1342.63 261.512 1344.05 267.043 1347.57 266.634C1350.39 266.305 1350.55 262.648 1353.35 262.325C1356.62 261.953 1357.81 266.731 1361.45 267.173C1363.12 267.377 1365.3 266.672 1368 263.402" stroke="#D8ECED" stroke-width="3" stroke-miterlimit="10"/>
<path id="Vector_32" d="M1150.25 224.082C1152.11 226.565 1154.61 229.005 1157.18 228.391C1159.88 227.75 1160.39 224.297 1162.96 224.082C1166.17 223.812 1167.32 228.973 1170.29 228.391C1172.6 227.938 1172.57 224.685 1174.91 224.082C1178.06 223.268 1179.48 228.8 1183.01 228.391C1185.83 228.062 1185.98 224.405 1188.79 224.082C1192.05 223.71 1193.24 228.488 1196.88 228.929C1198.55 229.134 1200.73 228.429 1203.43 225.159" stroke="#D8ECED" stroke-width="3" stroke-miterlimit="10"/>
<path id="Vector_33" d="M1288.22 390.52C1290.09 393.003 1292.59 395.443 1295.16 394.829C1297.86 394.188 1298.37 390.735 1300.94 390.52C1304.14 390.25 1305.3 395.411 1308.26 394.829C1310.57 394.376 1310.55 391.123 1312.89 390.52C1316.04 389.706 1317.45 395.238 1320.98 394.829C1323.8 394.5 1323.96 390.843 1326.76 390.52C1330.02 390.148 1331.21 394.926 1334.86 395.367C1336.52 395.572 1338.71 394.867 1341.41 391.597" stroke="#D8ECED" stroke-width="3" stroke-miterlimit="10"/>
<path id="Vector_34" d="M1025.76 226.775C1027.62 229.258 1030.13 231.698 1032.7 231.084C1035.39 230.443 1035.9 226.991 1038.48 226.775C1041.68 226.506 1042.84 231.666 1045.8 231.084C1048.11 230.632 1048.09 227.378 1050.43 226.775C1053.58 225.962 1054.99 231.494 1058.52 231.084C1061.34 230.756 1061.49 227.098 1064.3 226.775C1067.56 226.403 1068.75 231.181 1072.39 231.623C1074.06 231.828 1076.25 231.122 1078.95 227.852" stroke="#D8ECED" stroke-width="3" stroke-miterlimit="10"/>
<path id="Vector_35" d="M993 288.179C994.865 290.663 997.367 293.103 999.937 292.488C1002.64 291.848 1003.14 288.395 1005.72 288.179C1008.92 287.91 1010.08 293.07 1013.04 292.488C1015.35 292.036 1015.33 288.783 1017.67 288.179C1020.82 287.366 1022.23 292.898 1025.76 292.488C1028.58 292.16 1028.73 288.503 1031.54 288.179C1034.8 287.808 1035.99 292.585 1039.63 293.027C1041.3 293.232 1043.49 292.526 1046.19 289.257" stroke="#D8ECED" stroke-width="3" stroke-miterlimit="10"/>
<path id="Vector_36" d="M1260.47 226.775C1262.92 229.258 1266.2 231.698 1269.57 231.084C1273.1 230.443 1273.78 226.991 1277.16 226.775C1281.35 226.506 1282.87 231.666 1286.76 231.084C1289.78 230.632 1289.75 227.378 1292.83 226.775C1296.96 225.962 1298.82 231.494 1303.44 231.084C1307.14 230.756 1307.34 227.098 1311.02 226.775C1315.3 226.403 1316.86 231.181 1321.64 231.623C1323.82 231.828 1326.69 231.122 1330.23 227.852" stroke="#D8ECED" stroke-width="3" stroke-miterlimit="10"/>
<path id="Vector_37" d="M1191.1 280.924C1195.55 282.712 1201.5 284.473 1207.64 284.032C1214.06 283.569 1215.28 281.08 1221.42 280.924C1229.05 280.73 1231.83 284.452 1238.88 284.032C1244.37 283.703 1244.32 281.339 1249.9 280.924C1257.42 280.337 1260.79 284.323 1269.2 284.032C1275.93 283.795 1276.29 281.155 1282.98 280.924C1290.75 280.655 1293.59 284.096 1302.28 284.42C1307.55 284.559 1312.81 283.649 1317.9 281.716" stroke="#D8ECED" stroke-width="3" stroke-miterlimit="10"/>
<path id="Vector_38" d="M1074.32 258.84C1078.77 260.628 1084.73 262.389 1090.86 261.948C1097.28 261.485 1098.5 258.996 1104.64 258.84C1112.28 258.646 1115.05 262.368 1122.1 261.948C1127.59 261.619 1127.55 259.255 1133.13 258.84C1140.64 258.253 1144.01 262.239 1152.42 261.948C1159.15 261.711 1159.51 259.071 1166.21 258.84C1173.98 258.571 1176.82 262.012 1185.5 262.336C1190.77 262.476 1196.03 261.565 1201.12 259.632" stroke="#D8ECED" stroke-width="3" stroke-miterlimit="10"/>
<path id="Vector_39" d="M1025.96 350.93L1042.54 345.544C1042.54 345.544 1053.71 348.776 1057.18 350.93C1060.65 353.085 1073.75 348.237 1073.75 348.237L1099.19 354.162L1120.77 345.544" stroke="#D8ECED" stroke-width="3" stroke-miterlimit="10"/>
<path id="Vector_40" d="M1167.79 367.628C1167.79 367.628 1177.43 373.014 1182.05 367.628C1186.68 362.241 1196.7 371.398 1196.7 371.398C1196.7 371.398 1204.79 374.091 1208.65 368.705C1212.5 363.319 1225.6 371.937 1225.6 371.937" stroke="#D8ECED" stroke-width="3" stroke-miterlimit="10"/>
<path id="Vector_41" d="M1151.99 302.992C1151.99 302.992 1155.85 308.378 1164.71 302.992C1164.71 302.992 1173.19 309.994 1178.97 302.992C1178.97 302.992 1186.68 309.994 1192.46 302.992C1192.46 302.992 1200.17 311.61 1205.18 304.608C1205.18 304.608 1212.11 310.533 1217.9 305.146" stroke="#D8ECED" stroke-width="3" stroke-miterlimit="10"/>
<path id="Vector_42" d="M1264.53 343.389C1264.53 343.389 1268.38 348.775 1277.25 343.389C1277.25 343.389 1285.73 350.391 1291.51 343.389C1291.51 343.389 1299.22 350.391 1305 343.389C1305 343.389 1312.71 352.007 1317.72 345.005C1317.72 345.005 1324.65 350.93 1330.43 345.544" stroke="#D8ECED" stroke-width="3" stroke-miterlimit="10"/>
<path id="Vector_43" d="M1065.28 385.941C1065.28 385.941 1069.13 391.328 1077.99 385.941C1077.99 385.941 1086.47 392.944 1092.25 385.941C1092.25 385.941 1099.96 392.944 1105.74 385.941C1105.74 385.941 1113.45 394.56 1118.46 387.557C1118.46 387.557 1125.4 393.482 1131.18 388.096" stroke="#D8ECED" stroke-width="3" stroke-miterlimit="10"/>
</g>
</g>
<g id="auto">
<path id="Vector_44" d="M86.9169 565.178C86.9169 565.178 85.5511 559.253 83.73 558.175" stroke="#D55C49" stroke-width="3" stroke-miterlimit="10"/>
<g id="auto_2">
<path id="Vector_45" d="M29.7634 562.803L29.7341 562.788C27.8816 561.861 25.7443 562.886 24.9603 565.077L19.9242 579.155C19.1401 581.346 20.0063 583.875 21.8587 584.802L21.8881 584.817C23.7405 585.745 25.8778 584.72 26.6619 582.528L31.698 568.451C32.482 566.259 31.6159 563.731 29.7634 562.803Z" fill="#E6DDB2"/>
<path id="Vector_46" d="M37.0777 595.341C41.7294 595.341 45.5003 590.88 45.5003 585.376C45.5003 579.873 41.7294 575.412 37.0777 575.412C32.426 575.412 28.655 579.873 28.655 585.376C28.655 590.88 32.426 595.341 37.0777 595.341Z" fill="#A31A10" stroke="#F4DCDC" stroke-width="6" stroke-miterlimit="10"/>
<path id="Vector_47" d="M37.3055 587.8C38.3113 587.8 39.1266 586.835 39.1266 585.645C39.1266 584.455 38.3113 583.491 37.3055 583.491C36.2997 583.491 35.4844 584.455 35.4844 585.645C35.4844 586.835 36.2997 587.8 37.3055 587.8Z" fill="#D55C49"/>
<path id="Vector_48" d="M111.288 593.186C115.94 593.186 119.711 588.725 119.711 583.222C119.711 577.718 115.94 573.257 111.288 573.257C106.636 573.257 102.865 577.718 102.865 583.222C102.865 588.725 106.636 593.186 111.288 593.186Z" fill="#A31A10" stroke="#F4DCDC" stroke-width="6" stroke-miterlimit="10"/>
<path id="Vector_49" d="M111.516 585.645C112.522 585.645 113.337 584.681 113.337 583.491C113.337 582.301 112.522 581.336 111.516 581.336C110.51 581.336 109.695 582.301 109.695 583.491C109.695 584.681 110.51 585.645 111.516 585.645Z" fill="#D55C49"/>
<path id="Vector_50" d="M104.218 573.796C101.031 577.027 99.8879 582.688 101.486 587.8L47.3077 588.339C47.977 582.198 45.4866 576.489 41.3891 574.334C36.3811 571.679 31.3229 575.627 30.9177 575.95C27.7308 578.514 26.5288 582.516 26.3649 582.414C26.201 582.311 26.8202 580.642 30.4624 572.18C30.9245 569.979 32.0601 568.06 33.6494 566.793C34.5882 566.094 35.641 565.637 36.7393 565.451C37.8375 565.265 38.9565 565.356 40.0233 565.716L113.223 564.1C114.039 564.071 114.85 564.255 115.6 564.639C116.965 565.35 117.703 566.567 118.787 568.409C119.49 569.597 120.099 570.86 120.608 572.18C120.702 572.434 120.751 572.709 120.751 572.988C120.751 573.266 120.702 573.541 120.608 573.796C120.436 574.177 120.169 574.485 119.842 574.678C119.516 574.871 119.147 574.939 118.787 574.873C114.603 570.025 108.169 569.783 104.218 573.796Z" fill="#D55C49"/>
<path id="Vector_51" d="M51.8607 565.177C51.0139 562.312 51.2598 560.718 51.8607 559.791C54.474 555.778 65.815 561.148 72.3483 564.639L51.8607 565.177Z" fill="#856968"/>
<path id="Vector_52" d="M66.2157 564.1C67.5986 564.1 68.7197 562.774 68.7197 561.138C68.7197 559.502 67.5986 558.175 66.2157 558.175C64.8328 558.175 63.7117 559.502 63.7117 561.138C63.7117 562.774 64.8328 564.1 66.2157 564.1Z" fill="#623400"/>
<path id="Vector_53" d="M68.7061 561.946C68.7061 563.201 67.6317 563.922 66.885 564.1C66.3524 564.229 65.4281 564.202 65.0639 563.561C64.4584 562.484 65.5192 559.791 66.885 559.791C67.3602 559.82 67.8095 560.056 68.1459 560.454C68.4823 560.852 68.682 561.383 68.7061 561.946V561.946Z" fill="#F7C98D"/>
</g>
</g>
<g id="auto_3">
<path id="Vector_54" d="M913.338 511.178C913.338 511.178 914.704 505.253 916.525 504.175" stroke="#D55C49" stroke-width="3" stroke-miterlimit="10"/>
<g id="auto_4">
<path id="Vector_55" d="M970.491 508.803L970.521 508.788C972.373 507.861 974.511 508.886 975.295 511.077L980.331 525.155C981.115 527.346 980.249 529.875 978.396 530.802L978.367 530.817C976.514 531.745 974.377 530.72 973.593 528.528L968.557 514.451C967.773 512.259 968.639 509.731 970.491 508.803Z" fill="#E6DDB2"/>
<path id="Vector_56" d="M963.177 541.341C958.525 541.341 954.755 536.88 954.755 531.376C954.755 525.873 958.525 521.412 963.177 521.412C967.829 521.412 971.6 525.873 971.6 531.376C971.6 536.88 967.829 541.341 963.177 541.341Z" fill="#A31A10" stroke="#F4DCDC" stroke-width="6" stroke-miterlimit="10"/>
<path id="Vector_57" d="M962.949 533.8C961.944 533.8 961.128 532.835 961.128 531.645C961.128 530.455 961.944 529.491 962.949 529.491C963.955 529.491 964.771 530.455 964.771 531.645C964.771 532.835 963.955 533.8 962.949 533.8Z" fill="#D55C49"/>
<path id="Vector_58" d="M888.967 539.186C884.315 539.186 880.544 534.725 880.544 529.222C880.544 523.718 884.315 519.257 888.967 519.257C893.618 519.257 897.389 523.718 897.389 529.222C897.389 534.725 893.618 539.186 888.967 539.186Z" fill="#A31A10" stroke="#F4DCDC" stroke-width="6" stroke-miterlimit="10"/>
<path id="Vector_59" d="M888.739 531.645C887.733 531.645 886.918 530.681 886.918 529.491C886.918 528.301 887.733 527.336 888.739 527.336C889.745 527.336 890.56 528.301 890.56 529.491C890.56 530.681 889.745 531.645 888.739 531.645Z" fill="#D55C49"/>
<path id="Vector_60" d="M896.037 519.796C899.224 523.027 900.367 528.688 898.769 533.8L952.947 534.339C952.278 528.198 954.768 522.489 958.866 520.334C963.874 517.679 968.932 521.627 969.337 521.95C972.524 524.514 973.726 528.516 973.89 528.414C974.054 528.311 973.435 526.642 969.792 518.18C969.33 515.979 968.195 514.06 966.606 512.793C965.667 512.094 964.614 511.637 963.516 511.451C962.417 511.265 961.298 511.356 960.232 511.716L887.032 510.1C886.216 510.071 885.404 510.255 884.655 510.639C883.289 511.35 882.552 512.567 881.468 514.409C880.765 515.597 880.155 516.86 879.647 518.18C879.553 518.434 879.504 518.709 879.504 518.988C879.504 519.266 879.553 519.541 879.647 519.796C879.819 520.177 880.086 520.485 880.412 520.678C880.739 520.871 881.108 520.939 881.468 520.873C885.652 516.025 892.085 515.783 896.037 519.796Z" fill="#D55C49"/>
<path id="Vector_61" d="M948.394 511.177C949.241 508.312 948.995 506.718 948.394 505.791C945.781 501.778 934.44 507.148 927.907 510.639L948.394 511.177Z" fill="#856968"/>
<path id="Vector_62" d="M934.039 510.1C932.656 510.1 931.535 508.774 931.535 507.138C931.535 505.502 932.656 504.175 934.039 504.175C935.422 504.175 936.543 505.502 936.543 507.138C936.543 508.774 935.422 510.1 934.039 510.1Z" fill="#623400"/>
<path id="Vector_63" d="M931.549 507.946C931.549 509.201 932.623 509.922 933.37 510.1C933.903 510.229 934.827 510.202 935.191 509.561C935.796 508.484 934.736 505.791 933.37 505.791C932.895 505.82 932.445 506.056 932.109 506.454C931.773 506.852 931.573 507.383 931.549 507.946V507.946Z" fill="#F7C98D"/>
</g>
</g>
<g id="vrouwtjeIndeZee3">
<g id="vrouwtjeInDeZee3">
<path id="Vector_64" d="M666.917 288.038C665.096 290.193 664.832 292.573 665.551 293.424C666.271 294.275 668.169 293.478 668.283 293.424V288.038H666.917Z" fill="#9F6C4F"/>
<path id="Vector_65" d="M666.605 274.996C665.8 273.145 663.878 272.417 662.313 273.37C660.748 274.324 660.133 276.597 660.939 278.449L664.483 286.589C665.289 288.44 667.21 289.168 668.775 288.215C670.34 287.261 670.955 284.988 670.149 283.136L666.605 274.996Z" fill="#7A312A"/>
<path id="Vector_66" d="M661.454 275.111C665.811 279.28 666.371 281.44 666.007 282.652C665.488 284.397 662.897 284.661 662.82 286.422C662.83 286.905 662.968 287.371 663.212 287.757C663.457 288.143 663.797 288.43 664.186 288.577C665.938 289.115 669.071 285.598 669.194 282.113C669.317 278.628 666.585 275.111 662.364 274.034" fill="#9F6C4F"/>
<path id="Vector_67" d="M662.468 273.689C663.581 273.256 664.117 271.587 663.665 269.963C663.213 268.338 661.945 267.372 660.832 267.805C659.718 268.238 659.182 269.907 659.634 271.531C660.086 273.156 661.355 274.122 662.468 273.689Z" fill="#9F6C4F"/>
<path id="Vector_68" d="M663.73 270.263C663.498 270.942 662.255 271.017 661.454 270.802C660.871 270.645 659.633 270.107 659.633 269.186C659.633 268.356 660.607 267.57 661.454 267.57C662.82 267.537 664.035 269.423 663.73 270.263Z" fill="#7A312A"/>
</g>
</g>
<g id="vrouwtjeindeZee2">
<g id="vrouwtjeInDeZee2">
<path id="Vector_69" d="M360.995 349.186H355.987V341.106C356.643 340.842 357.412 340.664 357.808 341.106C358.204 341.548 357.754 342.393 358.263 343.261C358.6 343.799 359.397 344.483 360.085 344.338C360.244 344.306 360.408 344.23 360.54 344.338C360.749 344.51 360.713 345 360.645 345.415C360.777 346.67 360.89 347.931 360.995 349.186Z" fill="#A28170"/>
<path id="Vector_70" d="M359.57 368.108L358.708 368.517C358.362 368.68 358.194 369.144 358.333 369.553L360.202 375.073C360.34 375.482 360.732 375.68 361.078 375.517L361.94 375.108C362.286 374.944 362.453 374.48 362.315 374.072L360.446 368.552C360.308 368.143 359.915 367.944 359.57 368.108Z" fill="#A28170"/>
<path id="Vector_71" d="M357.676 369.115H356.602C356.27 369.115 356.001 369.433 356.001 369.826V376.483C356.001 376.876 356.27 377.194 356.602 377.194H357.676C358.008 377.194 358.277 376.876 358.277 376.483V369.826C358.277 369.433 358.008 369.115 357.676 369.115Z" fill="#A28170"/>
<path id="Vector_72" d="M360.995 369.654H355.987V348.108C356.136 348.158 356.293 348.158 356.442 348.108C357.03 347.904 357.408 346.821 357.353 345.415C357.495 345.334 357.651 345.292 357.808 345.292C357.966 345.292 358.121 345.334 358.263 345.415C358.851 345.895 358.232 347.419 358.787 348.108C359.047 348.432 359.62 348.647 360.995 348.108V369.654Z" fill="#652B29"/>
<path id="Vector_73" d="M357.367 342.183C358.373 342.183 359.188 340.857 359.188 339.221C359.188 337.585 358.373 336.258 357.367 336.258C356.361 336.258 355.546 337.585 355.546 339.221C355.546 340.857 356.361 342.183 357.367 342.183Z" fill="#A28170"/>
<path id="Vector_74" d="M359.174 338.144C359.042 338.591 358.318 338.262 356.897 338.951C356.142 339.318 355.768 339.689 355.532 339.49C355.222 339.221 355.532 338.219 355.532 338.144C355.532 338.068 356.078 336.258 357.353 336.258C358.459 336.258 359.361 337.578 359.174 338.144Z" fill="#652B29"/>
<path id="Vector_75" d="M358.596 349.643C358.596 349.093 358.219 348.647 357.754 348.647C357.288 348.647 356.911 349.093 356.911 349.643V355.73C356.911 356.28 357.288 356.726 357.754 356.726C358.219 356.726 358.596 356.28 358.596 355.73V349.643Z" fill="#A28170"/>
</g>
</g>
<g id="vrouwtjeindeZee1">
<g id="vrouwtjeInDeZee">
<path id="Vector_76" d="M46.8528 398.202C45.0317 400.356 44.7677 402.737 45.487 403.588C46.2063 404.439 48.1048 403.642 48.2187 403.588V398.202H46.8528Z" fill="#9F6C4F"/>
<path id="Vector_77" d="M46.5354 385.158C45.7295 383.307 43.8077 382.579 42.2429 383.532C40.6782 384.486 40.063 386.76 40.8689 388.611L44.4127 396.751C45.2186 398.603 47.1404 399.33 48.7052 398.377C50.27 397.423 50.8851 395.15 50.0792 393.299L46.5354 385.158Z" fill="#7A312A"/>
<path id="Vector_78" d="M41.3894 385.274C45.7464 389.443 46.3064 391.603 45.9422 392.815C45.4232 394.56 42.8326 394.824 42.7552 396.585C42.766 397.068 42.9032 397.534 43.1479 397.92C43.3926 398.306 43.7327 398.593 44.1211 398.74C45.8739 399.279 49.0062 395.761 49.1291 392.276C49.2521 388.791 46.5204 385.274 42.3 384.197" fill="#9F6C4F"/>
<path id="Vector_79" d="M42.4066 383.85C43.5197 383.417 44.0557 381.749 43.6039 380.124C43.1521 378.499 41.8835 377.533 40.7705 377.966C39.6574 378.399 39.1214 380.068 39.5732 381.693C40.025 383.317 41.2936 384.283 42.4066 383.85Z" fill="#9F6C4F"/>
<path id="Vector_80" d="M43.6659 380.426C43.4337 381.105 42.1908 381.181 41.3895 380.965C40.8067 380.809 39.5684 380.27 39.5684 379.349C39.5684 378.52 40.5427 377.733 41.3895 377.733C42.7553 377.701 43.9709 379.586 43.6659 380.426Z" fill="#7A312A"/>
</g>
</g>
</g>
<defs>
<linearGradient id="paint0_linear" x1="721.5" y1="412" x2="721.5" y2="181" gradientUnits="userSpaceOnUse">
<stop stop-color="#567F83"/>
<stop offset="1" stop-color="#678796"/>
</linearGradient>
</defs>
</svg>
