<svg width="375" height="558" viewBox="0 0 375 558" fill="none" xmlns="http://www.w3.org/2000/svg">
<g id="achtergrond">
<g id="lucht">
<g id="lucht_2">
<path id="meeuw" d="M15.4121 37.3326L35.0908 17.4116H46.9896L57.5154 8.21729H80.3976L78.1094 10.7713L59.346 12.8144L49.2778 22.5196L47.4472 25.0735C47.4472 25.0735 44.7014 22.0088 44.2437 22.5196C43.7861 23.0304 36.4638 22.5196 36.4638 22.5196L19.5309 37.3326H15.4121Z" fill="#D1D4D9"/>
<path id="meeuw_2" d="M104.195 29.6705L123.874 9.7495H135.773L146.299 0.555176H169.181L166.893 3.10915L148.129 5.15234L138.061 14.8575L136.23 17.4114C136.23 17.4114 133.485 14.3467 133.027 14.8575C132.569 15.3683 125.247 14.8575 125.247 14.8575L108.314 29.6705H104.195Z" fill="#D1D4D9"/>
<path id="meeuw_3" d="M132.569 54.1888L146.568 42.655H155.03L162.531 37.3325H178.791L177.166 38.8087L163.821 39.9938L156.659 45.6125L155.355 47.0938C155.355 47.0938 153.405 45.3163 153.067 45.6125C152.728 45.9088 147.534 45.6125 147.534 45.6125L135.516 54.1888H132.569Z" fill="#D1D4D9"/>
</g>
</g>
<g id="zon">
<path id="zon_2" d="M301.554 121.473C338.265 121.473 368.025 101.94 368.025 77.8441C368.025 53.7483 338.265 34.2148 301.554 34.2148C264.843 34.2148 235.083 53.7483 235.083 77.8441C235.083 101.94 264.843 121.473 301.554 121.473Z" fill="#E7C44C"/>
</g>
<g id="zeeZand">
<g id="zee/zand">
<path id="zee" d="M376.037 69H0.0307617V300H376.037V69Z" fill="url(#paint0_linear)"/>
<path id="strand" d="M376.037 302H0.0307617V558H376.037V302Z" fill="#E8C54D"/>
<path id="groen" d="M376.036 400H0.0302734V487H376.036V400Z" fill="#93B374"/>
<path id="Vector" d="M-3 295.072C-3 295.072 11.0367 301.926 22.9971 295.072C22.9971 295.072 37.0338 303.508 47.4498 295.072C47.4498 295.072 60.9674 302.453 71.9025 295.072C71.9025 295.072 88.0155 303.508 98.4143 295.072C98.4143 295.072 113.489 304.562 122.867 295.072C122.867 295.072 130.16 304.562 139.503 295.072C139.503 295.072 150.417 301.926 156.136 295.072C156.136 295.072 166.534 301.926 171.215 295.072C171.215 295.072 180.571 302.453 185.77 295.072C185.77 295.072 195.127 301.926 199.288 295.072C199.288 295.072 207.083 300.344 211.244 295.072C211.244 295.072 219.043 301.399 222.162 295.072C222.162 295.072 227.881 300.871 233.599 295.072C233.599 295.072 239.837 301.399 244.517 294.017C244.517 294.017 250.236 301.926 257.511 294.017C257.511 294.017 265.31 299.817 270.51 294.017C270.51 294.017 276.747 298.235 281.428 294.017C281.428 294.017 287.146 299.29 291.822 294.017C291.822 294.017 300.14 300.344 305.34 294.017C305.34 294.017 315.739 300.871 320.415 294.017C320.415 294.017 327.176 300.344 332.371 294.017C332.371 294.017 340.689 293.49 343.808 298.235C346.927 302.98 352.649 296.654 352.649 296.654C352.649 296.654 356.287 295.072 362.006 298.235C367.724 301.399 368.243 296.126 368.243 296.126C368.243 296.126 371.362 293.49 375 298.235V299.817H-3V295.072Z" fill="#D8ECED"/>
</g>
</g>
<g id="golfjes">
<g id="golfjes_2">
<path id="Vector_2" d="M78.623 182.877C80.4884 185.36 82.9897 187.8 85.5604 187.186C88.2582 186.545 88.7669 183.093 91.3414 182.877C94.5442 182.608 95.7004 187.768 98.6642 187.186C100.977 186.734 100.95 183.48 103.289 182.877C106.442 182.064 107.856 187.596 111.383 187.186C114.204 186.858 114.358 183.2 117.164 182.877C120.424 182.506 121.615 187.283 125.257 187.725C126.926 187.93 129.111 187.224 131.809 183.954" stroke="#D8ECED" stroke-width="3" stroke-miterlimit="10"/>
<path id="Vector_3" d="M321.814 144.635C323.679 147.118 326.181 149.558 328.751 148.944C331.449 148.303 331.958 144.85 334.532 144.635C337.735 144.365 338.891 149.525 341.855 148.944C344.168 148.491 344.141 145.238 346.48 144.635C349.633 143.821 351.047 149.353 354.573 148.944C357.395 148.615 357.549 144.958 360.355 144.635C363.615 144.263 364.806 149.041 368.448 149.482C370.117 149.687 372.302 148.981 375 145.712" stroke="#D8ECED" stroke-width="3" stroke-miterlimit="10"/>
<path id="Vector_4" d="M157.246 106.391C159.111 108.874 161.613 111.314 164.183 110.7C166.881 110.059 167.39 106.607 169.964 106.391C173.167 106.122 174.323 111.282 177.287 110.7C179.6 110.248 179.573 106.995 181.912 106.391C185.065 105.578 186.479 111.11 190.006 110.7C192.827 110.372 192.981 106.715 195.787 106.391C199.047 106.02 200.238 110.797 203.88 111.239C205.549 111.444 207.734 110.738 210.432 107.469" stroke="#D8ECED" stroke-width="3" stroke-miterlimit="10"/>
<path id="Vector_5" d="M295.221 272.829C297.087 275.312 299.588 277.752 302.159 277.138C304.856 276.497 305.365 273.045 307.94 272.829C311.142 272.56 312.299 277.72 315.262 277.138C317.575 276.686 317.548 273.433 319.887 272.829C323.04 272.016 324.454 277.548 327.981 277.138C330.802 276.81 330.956 273.153 333.762 272.829C337.022 272.458 338.213 277.235 341.855 277.677C343.524 277.882 345.709 277.176 348.407 273.907" stroke="#D8ECED" stroke-width="3" stroke-miterlimit="10"/>
<path id="Vector_6" d="M32.7598 109.085C34.6251 111.568 37.1264 114.008 39.6971 113.394C42.3949 112.753 42.9037 109.3 45.4782 109.085C48.6809 108.815 49.8371 113.975 52.8009 113.394C55.1133 112.941 55.0863 109.688 57.4258 109.085C60.5784 108.271 61.9928 113.803 65.5193 113.394C68.3405 113.065 68.4946 109.408 71.3004 109.085C74.5609 108.713 75.7518 113.491 79.3939 113.932C81.0627 114.137 83.248 113.431 85.9458 110.162" stroke="#D8ECED" stroke-width="3" stroke-miterlimit="10"/>
<path id="Vector_7" d="M0 170.489C1.86537 172.972 4.36665 175.412 6.93731 174.798C9.63515 174.157 10.1439 170.704 12.7184 170.489C15.9211 170.22 17.0773 175.38 20.0411 174.798C22.3536 174.346 22.3266 171.092 24.666 170.489C27.8186 169.676 29.2331 175.207 32.7595 174.798C35.5807 174.469 35.7349 170.812 38.5406 170.489C41.8011 170.117 42.992 174.895 46.6341 175.337C48.3029 175.541 50.4882 174.836 53.186 171.566" stroke="#D8ECED" stroke-width="3" stroke-miterlimit="10"/>
<path id="Vector_8" d="M267.472 109.085C269.919 111.568 273.199 114.008 276.571 113.394C280.101 112.753 280.776 109.3 284.156 109.085C288.353 108.815 289.871 113.975 293.76 113.394C296.782 112.941 296.755 109.688 299.827 109.085C303.958 108.271 305.816 113.803 310.441 113.394C314.14 113.065 314.341 109.408 318.022 109.085C322.3 108.713 323.86 113.491 328.639 113.932C330.825 114.137 333.692 113.431 337.23 110.162" stroke="#D8ECED" stroke-width="3" stroke-miterlimit="10"/>
<path id="Vector_9" d="M198.099 163.233C202.546 165.022 208.505 166.783 214.64 166.341C221.057 165.878 222.279 163.39 228.422 163.233C236.053 163.04 238.828 166.761 245.881 166.341C251.369 166.013 251.323 163.648 256.904 163.233C264.415 162.646 267.792 166.632 276.201 166.341C282.927 166.104 283.293 163.465 289.983 163.233C297.753 162.964 300.594 166.406 309.281 166.729C314.552 166.869 319.81 165.959 324.897 164.025" stroke="#D8ECED" stroke-width="3" stroke-miterlimit="10"/>
<path id="Vector_10" d="M81.3208 141.149C85.7684 142.938 91.7268 144.699 97.8624 144.257C104.279 143.794 105.501 141.306 111.645 141.149C119.276 140.956 122.051 144.677 129.103 144.257C134.592 143.929 134.545 141.564 140.126 141.149C147.638 140.562 151.014 144.548 159.423 144.257C166.149 144.02 166.515 141.381 173.205 141.149C180.975 140.88 183.816 144.322 192.503 144.645C197.774 144.785 203.032 143.875 208.119 141.941" stroke="#D8ECED" stroke-width="3" stroke-miterlimit="10"/>
<path id="Vector_11" d="M32.9639 233.24L49.5363 227.854C49.5363 227.854 60.7131 231.085 64.1818 233.24C67.6504 235.394 80.7542 230.547 80.7542 230.547L106.191 236.472L127.774 227.854" stroke="#D8ECED" stroke-width="3" stroke-miterlimit="10"/>
<path id="Vector_12" d="M174.793 249.937C174.793 249.937 184.429 255.324 189.053 249.937C193.678 244.551 203.699 253.708 203.699 253.708C203.699 253.708 211.792 256.401 215.647 251.015C219.501 245.628 232.604 254.246 232.604 254.246" stroke="#D8ECED" stroke-width="3" stroke-miterlimit="10"/>
<path id="Vector_13" d="M158.992 185.301C158.992 185.301 162.846 190.688 171.71 185.301C171.71 185.301 180.189 192.303 185.97 185.301C185.97 185.301 193.678 192.303 199.459 185.301C199.459 185.301 207.167 193.919 212.178 186.917C212.178 186.917 219.115 192.842 224.896 187.456" stroke="#D8ECED" stroke-width="3" stroke-miterlimit="10"/>
<path id="Vector_14" d="M271.53 225.699C271.53 225.699 275.384 231.085 284.249 225.699C284.249 225.699 292.728 232.701 298.509 225.699C298.509 225.699 306.217 232.701 311.998 225.699C311.998 225.699 319.706 234.317 324.716 227.315C324.716 227.315 331.654 233.24 337.435 227.853" stroke="#D8ECED" stroke-width="3" stroke-miterlimit="10"/>
<path id="Vector_15" d="M72.2754 268.251C72.2754 268.251 76.1295 273.637 84.9938 268.251C84.9938 268.251 93.4727 275.253 99.2538 268.251C99.2538 268.251 106.962 275.253 112.743 268.251C112.743 268.251 120.451 276.869 125.461 269.867C125.461 269.867 132.399 275.792 138.18 270.406" stroke="#D8ECED" stroke-width="3" stroke-miterlimit="10"/>
</g>
</g>
<g id="auto">
<path id="Vector_16" d="M83.9169 452.733C83.9169 452.733 82.5511 446.808 80.73 445.73" stroke="#D55C49" stroke-width="3" stroke-miterlimit="10"/>
<g id="auto_2">
<path id="Vector_17" d="M26.7634 450.358L26.7341 450.344C24.8816 449.416 22.7443 450.441 21.9603 452.632L16.9242 466.71C16.1401 468.901 17.0063 471.43 18.8587 472.358L18.8881 472.372C20.7405 473.3 22.8778 472.275 23.6619 470.084L28.698 456.006C29.482 453.814 28.6159 451.286 26.7634 450.358Z" fill="#E6DDB2"/>
<path id="Vector_18" d="M34.0779 482.896C38.7296 482.896 42.5006 478.435 42.5006 472.932C42.5006 467.428 38.7296 462.967 34.0779 462.967C29.4262 462.967 25.6553 467.428 25.6553 472.932C25.6553 478.435 29.4262 482.896 34.0779 482.896Z" fill="#A31A10" stroke="#F4DCDC" stroke-width="6" stroke-miterlimit="10"/>
<path id="Vector_19" d="M34.3055 475.355C35.3113 475.355 36.1266 474.39 36.1266 473.2C36.1266 472.011 35.3113 471.046 34.3055 471.046C33.2997 471.046 32.4844 472.011 32.4844 473.2C32.4844 474.39 33.2997 475.355 34.3055 475.355Z" fill="#D55C49"/>
<path id="Vector_20" d="M108.288 480.741C112.94 480.741 116.711 476.28 116.711 470.777C116.711 465.273 112.94 460.812 108.288 460.812C103.637 460.812 99.8657 465.273 99.8657 470.777C99.8657 476.28 103.637 480.741 108.288 480.741Z" fill="#A31A10" stroke="#F4DCDC" stroke-width="6" stroke-miterlimit="10"/>
<path id="Vector_21" d="M108.516 473.201C109.522 473.201 110.337 472.236 110.337 471.046C110.337 469.856 109.522 468.892 108.516 468.892C107.51 468.892 106.695 469.856 106.695 471.046C106.695 472.236 107.51 473.201 108.516 473.201Z" fill="#D55C49"/>
<path id="Vector_22" d="M101.218 461.351C98.0306 464.583 96.8879 470.244 98.4859 475.355L44.3077 475.894C44.977 469.753 42.4866 464.044 38.3891 461.889C33.3811 459.234 28.3229 463.182 27.9177 463.505C24.7308 466.069 23.5288 470.071 23.3649 469.969C23.201 469.867 23.8202 468.197 27.4624 459.735C27.9245 457.535 29.0601 455.615 30.6494 454.348C31.5882 453.649 32.641 453.192 33.7393 453.006C34.8375 452.821 35.9565 452.911 37.0233 453.271L110.223 451.655C111.039 451.626 111.85 451.81 112.6 452.194C113.965 452.905 114.703 454.122 115.787 455.964C116.49 457.153 117.099 458.415 117.608 459.735C117.702 459.99 117.751 460.265 117.751 460.543C117.751 460.821 117.702 461.096 117.608 461.351C117.436 461.732 117.169 462.04 116.842 462.233C116.516 462.426 116.147 462.494 115.787 462.428C111.603 457.58 105.169 457.338 101.218 461.351Z" fill="#D55C49"/>
<path id="Vector_23" d="M48.8607 452.733C48.0139 449.867 48.2598 448.273 48.8607 447.346C51.474 443.333 62.815 448.704 69.3483 452.194L48.8607 452.733Z" fill="#856968"/>
<path id="Vector_24" d="M63.2155 451.655C64.5984 451.655 65.7195 450.329 65.7195 448.693C65.7195 447.057 64.5984 445.73 63.2155 445.73C61.8325 445.73 60.7114 447.057 60.7114 448.693C60.7114 450.329 61.8325 451.655 63.2155 451.655Z" fill="#623400"/>
<path id="Vector_25" d="M65.7061 449.501C65.7061 450.756 64.6317 451.478 63.885 451.655C63.3524 451.785 62.4281 451.758 62.0639 451.117C61.4584 450.039 62.5192 447.346 63.885 447.346C64.3602 447.375 64.8095 447.611 65.1459 448.009C65.4823 448.407 65.682 448.939 65.7061 449.501V449.501Z" fill="#F7C98D"/>
</g>
</g>
<g id="auto_3">
<path id="Vector_26" d="M289.338 398.733C289.338 398.733 290.704 392.808 292.525 391.73" stroke="#D55C49" stroke-width="3" stroke-miterlimit="10"/>
<g id="auto_4">
<path id="Vector_27" d="M346.491 396.358L346.521 396.344C348.373 395.416 350.511 396.441 351.295 398.632L356.331 412.71C357.115 414.901 356.249 417.43 354.396 418.358L354.367 418.372C352.514 419.3 350.377 418.275 349.593 416.084L344.557 402.006C343.773 399.814 344.639 397.286 346.491 396.358Z" fill="#E6DDB2"/>
<path id="Vector_28" d="M339.177 428.896C334.525 428.896 330.754 424.435 330.754 418.932C330.754 413.428 334.525 408.967 339.177 408.967C343.829 408.967 347.6 413.428 347.6 418.932C347.6 424.435 343.829 428.896 339.177 428.896Z" fill="#A31A10" stroke="#F4DCDC" stroke-width="6" stroke-miterlimit="10"/>
<path id="Vector_29" d="M338.949 421.355C337.944 421.355 337.128 420.39 337.128 419.2C337.128 418.011 337.944 417.046 338.949 417.046C339.955 417.046 340.771 418.011 340.771 419.2C340.771 420.39 339.955 421.355 338.949 421.355Z" fill="#D55C49"/>
<path id="Vector_30" d="M264.967 426.741C260.315 426.741 256.544 422.28 256.544 416.777C256.544 411.273 260.315 406.812 264.967 406.812C269.618 406.812 273.389 411.273 273.389 416.777C273.389 422.28 269.618 426.741 264.967 426.741Z" fill="#A31A10" stroke="#F4DCDC" stroke-width="6" stroke-miterlimit="10"/>
<path id="Vector_31" d="M264.739 419.201C263.733 419.201 262.918 418.236 262.918 417.046C262.918 415.856 263.733 414.892 264.739 414.892C265.745 414.892 266.56 415.856 266.56 417.046C266.56 418.236 265.745 419.201 264.739 419.201Z" fill="#D55C49"/>
<path id="Vector_32" d="M272.037 407.351C275.224 410.583 276.367 416.244 274.769 421.355L328.947 421.894C328.278 415.753 330.768 410.044 334.866 407.889C339.874 405.234 344.932 409.182 345.337 409.505C348.524 412.069 349.726 416.071 349.89 415.969C350.054 415.867 349.435 414.197 345.792 405.735C345.33 403.535 344.195 401.615 342.606 400.348C341.667 399.649 340.614 399.192 339.516 399.006C338.417 398.821 337.298 398.911 336.232 399.271L263.032 397.655C262.216 397.626 261.404 397.81 260.655 398.194C259.289 398.905 258.552 400.122 257.468 401.964C256.765 403.153 256.155 404.415 255.647 405.735C255.553 405.99 255.504 406.265 255.504 406.543C255.504 406.821 255.553 407.096 255.647 407.351C255.819 407.732 256.086 408.04 256.412 408.233C256.739 408.426 257.108 408.494 257.468 408.428C261.652 403.58 268.085 403.338 272.037 407.351Z" fill="#D55C49"/>
<path id="Vector_33" d="M324.394 398.733C325.241 395.867 324.995 394.273 324.394 393.346C321.781 389.333 310.44 394.704 303.907 398.194L324.394 398.733Z" fill="#856968"/>
<path id="Vector_34" d="M310.039 397.655C308.656 397.655 307.535 396.329 307.535 394.693C307.535 393.057 308.656 391.73 310.039 391.73C311.422 391.73 312.543 393.057 312.543 394.693C312.543 396.329 311.422 397.655 310.039 397.655Z" fill="#623400"/>
<path id="Vector_35" d="M307.549 395.501C307.549 396.756 308.623 397.478 309.37 397.655C309.903 397.785 310.827 397.758 311.191 397.117C311.796 396.039 310.736 393.346 309.37 393.346C308.895 393.375 308.445 393.611 308.109 394.009C307.773 394.407 307.573 394.939 307.549 395.501V395.501Z" fill="#F7C98D"/>
</g>
</g>
<g id="vrouwtjeIndeZee3">
<g id="vrouwtjeInDeZee3">
<path id="Vector_36" d="M83.9168 255.593C82.0957 257.748 81.8316 260.129 82.551 260.98C83.2703 261.831 85.1688 261.033 85.2826 260.98V255.593H83.9168Z" fill="#9F6C4F"/>
<path id="Vector_37" d="M83.6052 242.551C82.7993 240.7 80.8775 239.972 79.3127 240.925C77.748 241.879 77.1328 244.153 77.9387 246.004L81.4825 254.144C82.2884 255.996 84.2103 256.723 85.775 255.77C87.3398 254.816 87.955 252.543 87.149 250.692L83.6052 242.551Z" fill="#7A312A"/>
<path id="Vector_38" d="M78.4536 242.666C82.8106 246.835 83.3706 248.995 83.0064 250.207C82.4874 251.952 79.8968 252.216 79.8194 253.977C79.8302 254.46 79.9674 254.926 80.2121 255.312C80.4568 255.698 80.7969 255.985 81.1853 256.132C82.9381 256.671 86.0704 253.153 86.1934 249.668C86.3163 246.183 83.5846 242.666 79.3642 241.589" fill="#9F6C4F"/>
<path id="Vector_39" d="M79.4674 241.244C80.5805 240.811 81.1165 239.143 80.6647 237.518C80.2129 235.893 78.9443 234.927 77.8313 235.36C76.7182 235.793 76.1822 237.462 76.634 239.087C77.0858 240.711 78.3544 241.677 79.4674 241.244Z" fill="#9F6C4F"/>
<path id="Vector_40" d="M80.7298 237.818C80.4976 238.497 79.2547 238.572 78.4534 238.357C77.8707 238.201 76.6323 237.662 76.6323 236.741C76.6323 235.911 77.6066 235.125 78.4534 235.125C79.8193 235.093 81.0349 236.978 80.7298 237.818Z" fill="#7A312A"/>
</g>
</g>
<g id="vrouwtjeindeZee2">
<g id="vrouwtjeInDeZee2">
<path id="Vector_41" d="M357.995 236.741H352.987V228.661C353.642 228.397 354.412 228.22 354.808 228.661C355.204 229.103 354.753 229.949 355.263 230.816C355.6 231.354 356.397 232.038 357.084 231.893C357.244 231.861 357.408 231.785 357.54 231.893C357.749 232.065 357.713 232.556 357.644 232.97C357.776 234.225 357.89 235.486 357.995 236.741Z" fill="#A28170"/>
<path id="Vector_42" d="M356.57 255.663L355.708 256.072C355.362 256.235 355.194 256.699 355.333 257.108L357.202 262.628C357.34 263.037 357.732 263.236 358.078 263.072L358.94 262.663C359.285 262.5 359.453 262.036 359.315 261.627L357.446 256.107C357.307 255.698 356.915 255.499 356.57 255.663Z" fill="#A28170"/>
<path id="Vector_43" d="M354.676 256.67H353.602C353.27 256.67 353.001 256.988 353.001 257.381V264.038C353.001 264.431 353.27 264.749 353.602 264.749H354.676C355.008 264.749 355.277 264.431 355.277 264.038V257.381C355.277 256.988 355.008 256.67 354.676 256.67Z" fill="#A28170"/>
<path id="Vector_44" d="M357.995 257.209H352.987V235.664C353.136 235.713 353.293 235.713 353.442 235.664C354.029 235.459 354.407 234.376 354.353 232.97C354.495 232.889 354.65 232.847 354.808 232.847C354.966 232.847 355.121 232.889 355.263 232.97C355.851 233.45 355.231 234.974 355.787 235.664C356.046 235.987 356.62 236.202 357.995 235.664V257.209Z" fill="#652B29"/>
<path id="Vector_45" d="M354.367 229.738C355.372 229.738 356.188 228.412 356.188 226.776C356.188 225.14 355.372 223.813 354.367 223.813C353.361 223.813 352.545 225.14 352.545 226.776C352.545 228.412 353.361 229.738 354.367 229.738Z" fill="#A28170"/>
<path id="Vector_46" d="M356.174 225.699C356.042 226.146 355.318 225.817 353.897 226.507C353.142 226.873 352.768 227.245 352.532 227.045C352.222 226.776 352.532 225.774 352.532 225.699C352.532 225.623 353.078 223.813 354.353 223.813C355.459 223.813 356.361 225.133 356.174 225.699Z" fill="#652B29"/>
<path id="Vector_47" d="M355.596 237.199C355.596 236.648 355.219 236.202 354.753 236.202C354.288 236.202 353.911 236.648 353.911 237.199V243.285C353.911 243.836 354.288 244.282 354.753 244.282C355.219 244.282 355.596 243.836 355.596 243.285V237.199Z" fill="#A28170"/>
</g>
</g>
<g id="vrouwtjeindeZee1">
<g id="vrouwtjeInDeZee">
<path id="Vector_48" d="M43.8528 285.757C42.0317 287.911 41.7677 290.292 42.487 291.143C43.2063 291.994 45.1048 291.197 45.2187 291.143V285.757H43.8528Z" fill="#9F6C4F"/>
<path id="Vector_49" d="M43.5354 272.713C42.7295 270.862 40.8077 270.134 39.2429 271.088C37.6782 272.041 37.063 274.315 37.8689 276.166L41.4127 284.306C42.2186 286.158 44.1404 286.886 45.7052 285.932C47.27 284.979 47.8851 282.705 47.0792 280.854L43.5354 272.713Z" fill="#7A312A"/>
<path id="Vector_50" d="M38.3896 272.829C42.7467 276.998 43.3067 279.158 42.9424 280.37C42.4234 282.115 39.8329 282.379 39.7555 284.141C39.7662 284.623 39.9035 285.089 40.1482 285.475C40.3929 285.861 40.7329 286.148 41.1213 286.295C42.8741 286.834 46.0065 283.316 46.1294 279.831C46.2523 276.346 43.5206 272.829 39.3002 271.752" fill="#9F6C4F"/>
<path id="Vector_51" d="M39.4069 271.405C40.5199 270.972 41.056 269.304 40.6041 267.679C40.1523 266.054 38.8838 265.088 37.7707 265.521C36.6577 265.954 36.1216 267.623 36.5735 269.248C37.0253 270.873 38.2938 271.839 39.4069 271.405Z" fill="#9F6C4F"/>
<path id="Vector_52" d="M40.6659 267.982C40.4337 268.66 39.1908 268.736 38.3895 268.52C37.8067 268.364 36.5684 267.825 36.5684 266.904C36.5684 266.075 37.5427 265.288 38.3895 265.288C39.7553 265.256 40.9709 267.141 40.6659 267.982Z" fill="#7A312A"/>
</g>
</g>
</g>
<defs>
<linearGradient id="paint0_linear" x1="188.034" y1="300" x2="188.034" y2="69" gradientUnits="userSpaceOnUse">
<stop stop-color="#567F83"/>
<stop offset="1" stop-color="#678796"/>
</linearGradient>
</defs>
</svg>
