<svg width="331" height="146" viewBox="0 0 331 146" fill="none" xmlns="http://www.w3.org/2000/svg">
<g id="depier">
<g id="Layer 14">
<g id="dePier">
<g id="Group">
<path id="Vector" d="M330.21 61.3199L330.67 61.5599L330.66 63.8499L330.21 63.5999V61.3199Z" fill="#004044"/>
<path id="Vector_2" d="M325.75 64.22L326.21 64.47L326.14 99.65L325.69 99.41L325.75 64.22Z" fill="#004044"/>
<path id="Vector_3" d="M330.21 61.3199L330.67 61.5599L326.21 62.1899L325.76 61.9399L330.21 61.3199Z" fill="#00595E"/>
<path id="Vector_4" d="M326.21 62.1901L330.67 61.5601L330.66 63.8501L330.6 99.0301L326.14 99.6501L326.21 64.4701V62.1901Z" fill="#006E74"/>
<path id="Vector_5" d="M325.76 61.9399L326.21 62.1899V64.4699L325.75 64.2199L325.76 61.9399Z" fill="#004044"/>
<path id="Vector_6" d="M311.84 63.9L312.3 64.15L312.29 66.43L311.84 66.18V63.9Z" fill="#004044"/>
<path id="Vector_7" d="M307.38 66.8101L307.84 67.0501L307.77 102.23L307.32 101.99L307.38 66.8101Z" fill="#004044"/>
<path id="Vector_8" d="M311.84 63.9L312.3 64.15L307.84 64.77L307.39 64.52L311.84 63.9Z" fill="#00595E"/>
<path id="Vector_9" d="M307.39 64.52L307.84 64.77V67.05L307.38 66.81L307.39 64.52Z" fill="#004044"/>
<path id="Vector_10" d="M307.84 64.77L312.3 64.15L312.29 66.43L312.23 101.61L307.77 102.23L307.84 67.05V64.77Z" fill="#006E74"/>
<path id="Vector_11" d="M257.87 71.48L258.32 71.73V74.01L257.86 73.77L257.87 71.48Z" fill="#004044"/>
<path id="Vector_12" d="M253.41 74.39L253.87 74.64L253.8 109.82L253.34 109.57L253.41 74.39Z" fill="#004044"/>
<path id="Vector_13" d="M253.87 72.36L258.32 71.73V74.01L258.25 109.19L253.8 109.82L253.87 74.64V72.36Z" fill="#006E74"/>
<path id="Vector_14" d="M257.87 71.48L258.32 71.73L253.87 72.36L253.41 72.11L257.87 71.48Z" fill="#00595E"/>
<path id="Vector_15" d="M253.41 72.11L253.87 72.36V74.64L253.41 74.39V72.11Z" fill="#004044"/>
<path id="Vector_16" d="M239.49 74.0699L239.95 74.3099L239.94 76.5999L239.49 76.3499V74.0699Z" fill="#004044"/>
<path id="Vector_17" d="M235.04 76.97L235.5 77.22L235.43 112.4L234.98 112.15L235.04 76.97Z" fill="#004044"/>
<path id="Vector_18" d="M239.49 74.0699L239.95 74.3099L235.5 74.9399L235.05 74.6899L239.49 74.0699Z" fill="#00595E"/>
<path id="Vector_19" d="M235.5 74.9401L239.95 74.3101L239.94 76.6001L239.88 111.78L235.43 112.4L235.5 77.2201V74.9401Z" fill="#006E74"/>
<path id="Vector_20" d="M235.05 74.6901L235.5 74.9401V77.2201L235.04 76.9701L235.05 74.6901Z" fill="#004044"/>
<path id="Vector_21" d="M167.72 84.15L168.17 84.4V86.68L167.71 86.44L167.72 84.15Z" fill="#004044"/>
<path id="Vector_22" d="M163.27 87.0601L163.72 87.3101L163.66 122.49L163.2 122.24L163.27 87.0601Z" fill="#004044"/>
<path id="Vector_23" d="M163.73 85.03L168.17 84.4V86.68L168.1 121.86L163.66 122.49L163.72 87.31L163.73 85.03Z" fill="#006E74"/>
<path id="Vector_24" d="M163.27 84.78L163.73 85.03L163.72 87.31L163.27 87.06V84.78Z" fill="#004044"/>
<path id="Vector_25" d="M167.72 84.15L168.17 84.4L163.73 85.03L163.27 84.78L167.72 84.15Z" fill="#00595E"/>
<path id="Vector_26" d="M149.35 86.73L149.81 86.98L149.8 89.27L149.35 89.02V86.73Z" fill="#004044"/>
<path id="Vector_27" d="M144.89 89.64L145.35 89.89L145.28 125.07L144.83 124.82L144.89 89.64Z" fill="#004044"/>
<path id="Vector_28" d="M149.35 86.73L149.81 86.98L145.35 87.61L144.9 87.36L149.35 86.73Z" fill="#00595E"/>
<path id="Vector_29" d="M145.35 87.61L149.81 86.98L149.8 89.27L149.74 124.44L145.28 125.07L145.35 89.89V87.61Z" fill="#006E74"/>
<path id="Vector_30" d="M144.9 87.36L145.35 87.61V89.89L144.89 89.64L144.9 87.36Z" fill="#004044"/>
<path id="Vector_31" d="M95.3801 94.3199L95.8301 94.5699V96.8499L95.3701 96.5999L95.3801 94.3199Z" fill="#004044"/>
<path id="Vector_32" d="M90.9201 97.23L91.3701 97.48L91.3101 132.66L90.8501 132.41L90.9201 97.23Z" fill="#004044"/>
<path id="Vector_33" d="M95.3799 94.3199L95.8299 94.5699L91.3799 95.1899L90.9199 94.9499L95.3799 94.3199Z" fill="#00595E"/>
<path id="Vector_34" d="M91.3801 95.1899L95.8301 94.5699V96.8499L95.7601 132.03L91.3101 132.66L91.3701 97.4799L91.3801 95.1899Z" fill="#006E74"/>
<path id="Vector_35" d="M90.9199 94.95L91.3799 95.19L91.3699 97.48L90.9199 97.23V94.95Z" fill="#004044"/>
<path id="Vector_36" d="M77.01 96.9L77.46 97.15V99.43L77 99.18L77.01 96.9Z" fill="#004044"/>
<path id="Vector_37" d="M72.55 99.8101L73.01 100.06L72.94 135.24L72.48 134.99L72.55 99.8101Z" fill="#004044"/>
<path id="Vector_38" d="M77.0101 96.9L77.4601 97.15L73.0101 97.78L72.5601 97.53L77.0101 96.9Z" fill="#00595E"/>
<path id="Vector_39" d="M73.0099 97.78L77.4599 97.15V99.43L77.3899 134.61L72.9399 135.24L73.0099 100.06V97.78Z" fill="#006E74"/>
<path id="Vector_40" d="M72.5598 97.53L73.0098 97.78V100.06L72.5498 99.81L72.5598 97.53Z" fill="#004044"/>
<path id="Vector_41" d="M23.0298 104.49L23.4898 104.73V107.02L23.0298 106.77V104.49Z" fill="#004044"/>
<path id="Vector_42" d="M18.5798 107.39L19.0298 107.64L18.9698 142.82L18.5098 142.58L18.5798 107.39Z" fill="#004044"/>
<path id="Vector_43" d="M23.0301 104.49L23.4901 104.73L19.0401 105.36L18.5801 105.11L23.0301 104.49Z" fill="#00595E"/>
<path id="Vector_44" d="M19.0402 105.36L23.4902 104.73V107.02L23.4202 142.2L18.9702 142.82L19.0302 107.64L19.0402 105.36Z" fill="#006E74"/>
<path id="Vector_45" d="M18.5801 105.11L19.0401 105.36L19.0301 107.64L18.5801 107.39V105.11Z" fill="#004044"/>
<path id="Vector_46" d="M4.6599 107.07L5.1099 107.32V109.6L4.6499 109.35L4.6599 107.07Z" fill="#004044"/>
<path id="Vector_47" d="M0.210137 109.98L0.660137 110.22L0.600137 145.41L0.140137 145.16L0.210137 109.98Z" fill="#004044"/>
<path id="Vector_48" d="M0.670098 107.94L5.1101 107.32V109.6L5.0401 144.78L0.600098 145.41L0.660098 110.22L0.670098 107.94Z" fill="#006E74"/>
<path id="Vector_49" d="M0.209961 107.69L0.669961 107.94L0.659961 110.22L0.209961 109.98V107.69Z" fill="#004044"/>
<path id="Vector_50" d="M4.65996 107.07L5.10996 107.32L0.669961 107.94L0.209961 107.69L4.65996 107.07Z" fill="#00595E"/>
<path id="Vector_51" d="M0.489961 91.03L330.7 44.63L330.66 63.85L330.67 61.56L326.21 62.19V64.47L312.29 66.43L312.3 64.15L307.84 64.77V67.05L258.32 74.01V71.73L253.87 72.36V74.64L239.94 76.6L239.95 74.31L235.5 74.94V77.22L168.17 86.68V84.4L163.73 85.03L163.72 87.31L149.8 89.27L149.81 86.98L145.35 87.61V89.89L95.83 96.85V94.57L91.38 95.19L91.37 97.48L77.46 99.43V97.15L73.01 97.78V100.06L23.49 107.02V104.73L19.04 105.36L19.03 107.64L5.10996 109.6V107.32L0.669961 107.94L0.459961 110.25L0.489961 91.03Z" fill="#006E74"/>
<path id="Vector_52" d="M330.24 44.38L330.7 44.63L0.490039 91.03L0.0400391 90.79L330.24 44.38Z" fill="#00595E"/>
<path id="Vector_53" d="M0.04 90.79L0.49 91.03L0.46 110.25L0 110.01L0.04 90.79Z" fill="#004044"/>
</g>
<g id="Group_2">
<path id="Vector_54" d="M303.55 42.37L304.01 42.62L297.78 43.5L297.32 43.25L303.55 42.37Z" fill="#00595E"/>
<path id="Vector_55" d="M303.58 27.9601L304.04 28.2101L304.01 42.6201L303.55 42.3701L303.58 27.9601Z" fill="#004044"/>
<g id="Group_3">
<g id="Group_4">
<g id="Group_5">
<path id="Vector_56" d="M308.91 23.7L309.37 23.94L309.13 23.82L308.68 23.58C308.761 23.612 308.838 23.6522 308.91 23.7" fill="#004E52"/>
<path id="Vector_57" d="M308.68 23.58L309.13 23.82C308.744 23.6287 308.338 23.4779 307.92 23.37L307.46 23.13C307.881 23.2379 308.29 23.3887 308.68 23.58" fill="#005155"/>
<path id="Vector_58" d="M307.46 23.13L307.92 23.37C307.05 23.1549 306.147 23.1107 305.26 23.24L304.8 22.99C305.687 22.8587 306.592 22.9063 307.46 23.13" fill="#005358"/>
</g>
</g>
</g>
<path id="Vector_59" d="M303.58 27.9601L304.04 28.2101L297.8 29.0801L297.35 28.8401L303.58 27.9601Z" fill="#002F31"/>
<path id="Vector_60" d="M297.35 28.84L297.8 29.08L297.78 43.5L297.32 43.25L297.35 28.84Z" fill="#002223"/>
<path id="Vector_61" d="M297.8 29.0801L304.04 28.2101L304.01 42.6201L297.78 43.5001L297.8 29.0801Z" fill="#003A3C"/>
<path id="Vector_62" d="M291.83 44.02L292.29 44.27L286.06 45.14L285.6 44.9L291.83 44.02Z" fill="#00595E"/>
<path id="Vector_63" d="M291.86 29.61L292.32 29.86L292.29 44.27L291.83 44.02L291.86 29.61Z" fill="#004044"/>
<path id="Vector_64" d="M285.63 30.48L286.08 30.73L286.06 45.14L285.6 44.9L285.63 30.48Z" fill="#002223"/>
<path id="Vector_65" d="M286.08 30.73L292.32 29.86L292.29 44.27L286.06 45.14L286.08 30.73Z" fill="#003A3C"/>
<path id="Vector_66" d="M291.86 29.61L292.32 29.86L286.08 30.73L285.63 30.48L291.86 29.61Z" fill="#002F31"/>
<path id="Vector_67" d="M280.12 45.67L280.57 45.91L274.34 46.79L273.88 46.54L280.12 45.67Z" fill="#00595E"/>
<path id="Vector_68" d="M280.14 31.25L280.6 31.5L280.57 45.91L280.12 45.67L280.14 31.25Z" fill="#004044"/>
<path id="Vector_69" d="M286.54 19.79L286.99 20.04L280.76 20.92L280.31 20.67L286.54 19.79Z" fill="#00595E"/>
<path id="Vector_70" d="M280.14 31.25L280.6 31.5L274.37 32.38L273.91 32.13L280.14 31.25Z" fill="#002F31"/>
<path id="Vector_71" d="M273.91 32.13L274.37 32.38L274.34 46.79L273.88 46.54L273.91 32.13Z" fill="#002223"/>
<path id="Vector_72" d="M274.37 32.38L280.6 31.5L280.57 45.91L274.34 46.79L274.37 32.38Z" fill="#003A3C"/>
<g id="Group_6">
<g id="Group_7">
<g id="Group_8">
<path id="Vector_73" d="M294.07 0.719985L294.52 0.969985L294.3 0.859985L293.86 0.609985L294.08 0.719985" fill="#004E52"/>
<path id="Vector_74" d="M293.86 0.610063L294.31 0.860063C293.951 0.67722 293.572 0.536294 293.18 0.440063L292.73 0.190063C293.121 0.289654 293.5 0.430444 293.86 0.610063" fill="#005155"/>
<path id="Vector_75" d="M292.72 0.190025L293.17 0.440025C292.36 0.234667 291.517 0.190497 290.69 0.310025L290.24 0.0700247C291.067 -0.0573284 291.91 -0.0165127 292.72 0.190025" fill="#005358"/>
</g>
</g>
</g>
<path id="Vector_76" d="M286.56 5.38L287.02 5.63L286.99 20.04L286.54 19.79L286.56 5.38Z" fill="#004044"/>
<path id="Vector_77" d="M268.4 47.3101L268.85 47.5601L262.62 48.4401L262.16 48.1901L268.4 47.3101Z" fill="#00595E"/>
<path id="Vector_78" d="M268.42 32.9L268.88 33.15L268.85 47.56L268.4 47.31L268.42 32.9Z" fill="#004044"/>
<path id="Vector_79" d="M280.33 6.26001L280.79 6.50001L280.76 20.92L280.31 20.67L280.33 6.26001Z" fill="#002223"/>
<path id="Vector_80" d="M280.79 6.5L287.02 5.63L286.99 20.04L280.76 20.92L280.79 6.5Z" fill="#003A3C"/>
<path id="Vector_81" d="M286.56 5.38L287.02 5.63L280.79 6.5L280.33 6.26L286.56 5.38Z" fill="#002F31"/>
<path id="Vector_82" d="M274.82 21.4401L275.27 21.6901L269.04 22.5601L268.59 22.3201L274.82 21.4401Z" fill="#00595E"/>
<path id="Vector_83" d="M268.42 32.9L268.88 33.15L262.65 34.02L262.19 33.78L268.42 32.9Z" fill="#002F31"/>
<path id="Vector_84" d="M262.19 33.78L262.65 34.02L262.62 48.44L262.16 48.19L262.19 33.78Z" fill="#002223"/>
<path id="Vector_85" d="M262.65 34.02L268.88 33.15L268.85 47.56L262.62 48.44L262.65 34.02Z" fill="#003A3C"/>
<path id="Vector_86" d="M274.85 7.03003L275.3 7.28003L275.27 21.69L274.82 21.44L274.85 7.03003Z" fill="#004044"/>
<path id="Vector_87" d="M256.68 48.96L257.13 49.21L250.9 50.09L250.44 49.84L256.68 48.96Z" fill="#00595E"/>
<path id="Vector_88" d="M256.7 34.55L257.16 34.8L257.13 49.21L256.68 48.96L256.7 34.55Z" fill="#004044"/>
<path id="Vector_89" d="M274.85 7.03003L275.3 7.28003L269.07 8.15003L268.61 7.90003L274.85 7.03003Z" fill="#002F31"/>
<path id="Vector_90" d="M268.61 7.90002L269.07 8.15002L269.04 22.56L268.59 22.32L268.61 7.90002Z" fill="#002223"/>
<path id="Vector_91" d="M263.1 23.09L263.56 23.34L257.32 24.21L256.87 23.96L263.1 23.09Z" fill="#00595E"/>
<path id="Vector_92" d="M263.13 8.67004L263.58 8.92004L263.56 23.34L263.1 23.09L263.13 8.67004Z" fill="#004044"/>
<path id="Vector_93" d="M256.89 9.55005L257.35 9.80005L257.32 24.21L256.87 23.96L256.89 9.55005Z" fill="#002223"/>
<path id="Vector_94" d="M263.13 8.67004L263.58 8.92004L257.35 9.80004L256.89 9.55004L263.13 8.67004Z" fill="#002F31"/>
<path id="Vector_95" d="M257.35 9.80004L263.58 8.92004L263.56 23.34L257.32 24.21L257.35 9.80004Z" fill="#003A3C"/>
<path id="Vector_96" d="M251.38 24.73L251.84 24.98L245.6 25.86L245.15 25.61L251.38 24.73Z" fill="#00595E"/>
<path id="Vector_97" d="M251.41 10.3201L251.86 10.5701L251.84 24.9801L251.38 24.7301L251.41 10.3201Z" fill="#004044"/>
<path id="Vector_98" d="M251.41 10.3201L251.86 10.5701L245.63 11.4501L245.17 11.2001L251.41 10.3201Z" fill="#002F31"/>
<path id="Vector_99" d="M245.17 11.2001L245.63 11.4501L245.6 25.8601L245.15 25.6101L245.17 11.2001Z" fill="#002223"/>
<path id="Vector_100" d="M304.81 22.99L305.26 23.24L228.56 34.02L228.1 33.77L304.81 22.99Z" fill="#00595E"/>
<path id="Vector_101" d="M243.71 6.91997L290.71 0.309968C294.65 -0.240032 297.86 2.76997 297.86 6.99997V24.26L235.5 33V16.83C235.54 12 239.2 7.54997 243.71 6.91997ZM280.71 20.92L286.94 20.04V5.62997L280.7 6.49997V20.92H280.71ZM268.98 22.56L275.21 21.69V7.27997L268.98 8.14997V22.56ZM257.26 24.21L263.49 23.34V8.91997L257.26 9.79997V24.21ZM245.54 25.86L251.86 25V10.59L245.63 11.47V25.88" fill="#006E74"/>
<path id="Vector_102" d="M269.07 8.15003L275.3 7.28003L275.27 21.69L269.04 22.56L269.07 8.15003Z" fill="#003A3C"/>
<path id="Vector_103" d="M256.7 34.55L257.16 34.8L250.93 35.67L250.47 35.42L256.7 34.55Z" fill="#002F31"/>
<path id="Vector_104" d="M250.47 35.42L250.93 35.67L250.9 50.09L250.44 49.84L250.47 35.42Z" fill="#002223"/>
<path id="Vector_105" d="M250.93 35.67L257.16 34.8L257.13 49.21L250.9 50.09L250.93 35.67Z" fill="#003A3C"/>
<path id="Vector_106" d="M244.96 50.61L245.41 50.86L239.18 51.73L238.72 51.48L244.96 50.61Z" fill="#00595E"/>
<path id="Vector_107" d="M244.98 36.2001L245.44 36.4401L245.41 50.8601L244.96 50.6101L244.98 36.2001Z" fill="#004044"/>
<path id="Vector_108" d="M244.98 36.2001L245.44 36.4401L239.21 37.3201L238.75 37.0701L244.98 36.2001Z" fill="#002F31"/>
<path id="Vector_109" d="M238.75 37.0701L239.21 37.3201L239.18 51.7301L238.72 51.4801L238.75 37.0701Z" fill="#002223"/>
<path id="Vector_110" d="M239.21 37.3201L245.44 36.4401L245.41 50.8601L239.18 51.7301L239.21 37.3201Z" fill="#003A3C"/>
<path id="Vector_111" d="M233.24 52.26L233.69 52.5L227.46 53.38L227.01 53.13L233.24 52.26Z" fill="#00595E"/>
<path id="Vector_112" d="M233.26 37.84L233.72 38.09L233.69 52.5L233.24 52.26L233.26 37.84Z" fill="#004044"/>
<path id="Vector_113" d="M245.63 11.4501L251.86 10.5701L251.84 24.9801L245.6 25.8601L245.63 11.4501Z" fill="#003A3C"/>
<path id="Vector_114" d="M233.26 37.84L233.72 38.09L227.49 38.97L227.03 38.72L233.26 37.84Z" fill="#002F31"/>
<path id="Vector_115" d="M227.49 38.97L233.72 38.09L233.69 52.5L227.46 53.38L227.49 38.97Z" fill="#003A3C"/>
<path id="Vector_116" d="M227.03 38.72L227.49 38.97L227.46 53.38L227.01 53.13L227.03 38.72Z" fill="#002223"/>
<path id="Vector_117" d="M290.24 0.0700684L290.7 0.310068L243.71 6.92007L243.25 6.67007L290.24 0.0700684Z" fill="#00595E"/>
<path id="Vector_118" d="M235.08 16.62L235.54 16.87L235.51 33.04L235.05 32.79L235.08 16.62Z" fill="#004044"/>
<path id="Vector_119" d="M219.9 43.74L220.36 43.99L220.33 60.14L219.87 59.89L219.9 43.74Z" fill="#004044"/>
<g id="Group_9">
<g id="Group_10">
<g id="Group_11">
<path id="Vector_120" d="M243.25 6.67004L243.71 6.92004C242.882 7.03562 242.076 7.27496 241.32 7.63004L240.86 7.39004C241.612 7.03046 242.415 6.78767 243.24 6.67004" fill="#005358"/>
<path id="Vector_121" d="M240.86 7.39001L241.31 7.63001C240.851 7.85146 240.409 8.10893 239.99 8.40001L239.53 8.15001C239.951 7.85842 240.396 7.60412 240.86 7.39001" fill="#005155"/>
<path id="Vector_122" d="M239.54 8.15002L240 8.40002C239.654 8.64236 239.32 8.90272 239 9.18003L238.55 8.93003C238.868 8.65006 239.202 8.38958 239.55 8.15002" fill="#004E52"/>
<path id="Vector_123" d="M238.56 8.93005L239.01 9.18005C238.716 9.4424 238.439 9.72295 238.18 10.0201L237.72 9.77005C237.982 9.47282 238.263 9.19227 238.56 8.93005" fill="#004C50"/>
<path id="Vector_124" d="M237.72 9.77002L238.18 10.02C237.92 10.3163 237.676 10.6267 237.45 10.95L236.99 10.7C237.22 10.38 237.46 10.07 237.72 9.77002Z" fill="#00494D"/>
<path id="Vector_125" d="M236.99 10.7001L237.45 10.9501C237.205 11.2957 236.981 11.6564 236.78 12.0301L236.32 11.7801C236.53 11.4101 236.75 11.0501 236.99 10.7001Z" fill="#00474A"/>
<path id="Vector_126" d="M236.32 11.78L236.78 12.03C236.543 12.4724 236.336 12.9301 236.16 13.4L235.71 13.15C235.882 12.6802 236.086 12.2226 236.32 11.78" fill="#004448"/>
<path id="Vector_127" d="M235.71 13.15L236.16 13.4C235.754 14.5124 235.541 15.6859 235.53 16.87L235.08 16.62C235.081 15.435 235.295 14.2598 235.71 13.15" fill="#004245"/>
</g>
</g>
</g>
<path id="Vector_128" d="M228.55 34.0001L305.26 23.2401C309.5 22.6401 312.93 25.8701 312.93 30.4401V47.1301L220.37 60.1301V43.9801C220.37 39.1201 224.03 34.6501 228.55 34.0001ZM239.18 51.7101L245.41 50.8401V36.4201L239.17 37.3001V51.7101H239.18ZM227.46 53.3801L233.69 52.5001V38.0901L227.45 38.9701V53.3801H227.46ZM274.33 46.7901L280.56 45.9101V31.5001L274.33 32.3801V46.7901ZM262.61 48.4401L268.84 47.5601V33.1501L262.61 34.0301V48.4401V48.4401ZM250.86 50.0801L257.09 49.2101V34.8001L250.85 35.6701V50.0801H250.86ZM286 45.1401L292.24 44.2701V29.8601L286.01 30.7301V45.1401H286ZM297.73 43.5001L303.97 42.6201V28.2101L297.74 29.0801V43.5001" fill="#006E74"/>
<g id="Group_12">
<g id="Group_13">
<g id="Group_14">
<path id="Vector_129" d="M228.1 33.77L228.55 34.02C227.721 34.1389 226.916 34.3816 226.16 34.74L225.7 34.49C226.461 34.1348 227.269 33.8923 228.1 33.77" fill="#005358"/>
<path id="Vector_130" d="M225.7 34.49L226.16 34.74C225.695 34.9576 225.25 35.2152 224.83 35.51L224.37 35.26C224.792 34.9673 225.236 34.7098 225.7 34.49Z" fill="#005155"/>
<path id="Vector_131" d="M224.37 35.26L224.83 35.51C224.479 35.7466 224.145 36.0072 223.83 36.29L223.37 36.04C223.69 35.7627 224.023 35.5024 224.37 35.26" fill="#004E52"/>
<path id="Vector_132" d="M223.38 36L223.84 36.25C223.546 36.5123 223.269 36.7929 223.01 37.09L222.55 36.84C222.811 36.5453 223.088 36.2649 223.38 36" fill="#004C50"/>
<path id="Vector_133" d="M222.55 36.88L223.01 37.13C222.744 37.4276 222.497 37.7415 222.27 38.07L221.81 37.82C222.04 37.4939 222.287 37.1801 222.55 36.88" fill="#00494D"/>
<path id="Vector_134" d="M221.86 37.8201L222.32 38.0701C222.08 38.4101 221.86 38.7701 221.65 39.1401L221.2 38.9001C221.396 38.5261 221.616 38.1653 221.86 37.8201" fill="#00474A"/>
<path id="Vector_135" d="M221.15 38.9L221.6 39.14C221.368 39.5868 221.164 40.0477 220.99 40.52L220.53 40.27C220.701 39.7983 220.909 39.3403 221.15 38.9" fill="#004448"/>
<path id="Vector_136" d="M220.53 40.27L220.99 40.52C220.573 41.6329 220.36 42.8116 220.36 44L219.9 43.75C219.906 42.5655 220.119 41.3911 220.53 40.28" fill="#004245"/>
</g>
</g>
</g>
</g>
</g>
</g>
</g>
</svg>
