<svg xmlns="http://www.w3.org/2000/svg" xmlns:xlink="http://www.w3.org/1999/xlink" viewBox="0 0 330.7 145.4"><defs><style>.cls-1{fill:none;}.cls-2{isolation:isolate;}.cls-3{fill:#004044;}.cls-4{fill:#00595e;}.cls-5{fill:#006e74;}.cls-6{clip-path:url(#clip-path);}.cls-7{fill:#004e52;}.cls-8{fill:#005155;}.cls-9{fill:#005358;}.cls-10{fill:#002f31;}.cls-11{fill:#002223;}.cls-12{fill:#003a3c;}.cls-13{clip-path:url(#clip-path-2);}.cls-14{clip-path:url(#clip-path-3);}.cls-15{fill:#004c50;}.cls-16{fill:#00494d;}.cls-17{fill:#00474a;}.cls-18{fill:#004448;}.cls-19{fill:#004245;}.cls-20{clip-path:url(#clip-path-4);}</style><clipPath id="clip-path" transform="translate(-20.14)"><path class="cls-1" d="M329.05,23.7l.46.24a6.66,6.66,0,0,0-4.11-.7l-.46-.25A6.58,6.58,0,0,1,329.05,23.7Z"/></clipPath><clipPath id="clip-path-2" transform="translate(-20.14)"><path class="cls-1" d="M314.21.72l.45.25a6.21,6.21,0,0,0-3.83-.66l-.45-.24A6.15,6.15,0,0,1,314.21.72Z"/></clipPath><clipPath id="clip-path-3" transform="translate(-20.14)"><path class="cls-1" d="M263.39,6.67l.46.25c-4.51.63-8.17,5.09-8.18,10l-.45-.25C255.23,11.76,258.89,7.3,263.39,6.67Z"/></clipPath><clipPath id="clip-path-4" transform="translate(-20.14)"><path class="cls-1" d="M248.24,33.77l.45.25c-4.52.63-8.18,5.1-8.19,10l-.46-.25C240.05,38.87,243.72,34.41,248.24,33.77Z"/></clipPath></defs><g id="Layer_2" data-name="Layer 2"><g id="Layer_14" data-name="Layer 14"><g id="dePier"><g class="cls-2"><polygon class="cls-3" points="330.21 61.32 330.67 61.56 330.66 63.85 330.21 63.6 330.21 61.32"/><polygon class="cls-3" points="325.75 64.22 326.21 64.47 326.14 99.65 325.69 99.41 325.75 64.22"/><polygon class="cls-4" points="330.21 61.32 330.67 61.56 326.21 62.19 325.76 61.94 330.21 61.32"/><polygon class="cls-5" points="326.21 62.19 330.67 61.56 330.66 63.85 330.6 99.03 326.14 99.65 326.21 64.47 326.21 62.19"/><polygon class="cls-3" points="325.76 61.94 326.21 62.19 326.21 64.47 325.75 64.22 325.76 61.94"/><polygon class="cls-3" points="311.84 63.9 312.3 64.15 312.29 66.43 311.84 66.18 311.84 63.9"/><polygon class="cls-3" points="307.38 66.81 307.84 67.05 307.77 102.23 307.32 101.99 307.38 66.81"/><polygon class="cls-4" points="311.84 63.9 312.3 64.15 307.84 64.77 307.39 64.52 311.84 63.9"/><polygon class="cls-3" points="307.39 64.52 307.84 64.77 307.84 67.05 307.38 66.81 307.39 64.52"/><polygon class="cls-5" points="307.84 64.77 312.3 64.15 312.29 66.43 312.23 101.61 307.77 102.23 307.84 67.05 307.84 64.77"/><polygon class="cls-3" points="257.87 71.48 258.32 71.73 258.32 74.01 257.86 73.77 257.87 71.48"/><polygon class="cls-3" points="253.41 74.39 253.87 74.64 253.8 109.82 253.34 109.57 253.41 74.39"/><polygon class="cls-5" points="253.87 72.36 258.32 71.73 258.32 74.01 258.25 109.19 253.8 109.82 253.87 74.64 253.87 72.36"/><polygon class="cls-4" points="257.87 71.48 258.32 71.73 253.87 72.36 253.41 72.11 257.87 71.48"/><polygon class="cls-3" points="253.41 72.11 253.87 72.36 253.87 74.64 253.41 74.39 253.41 72.11"/><polygon class="cls-3" points="239.49 74.07 239.95 74.31 239.94 76.6 239.49 76.35 239.49 74.07"/><polygon class="cls-3" points="235.04 76.97 235.5 77.22 235.43 112.4 234.98 112.15 235.04 76.97"/><polygon class="cls-4" points="239.49 74.07 239.95 74.31 235.5 74.94 235.05 74.69 239.49 74.07"/><polygon class="cls-5" points="235.5 74.94 239.95 74.31 239.94 76.6 239.88 111.78 235.43 112.4 235.5 77.22 235.5 74.94"/><polygon class="cls-3" points="235.05 74.69 235.5 74.94 235.5 77.22 235.04 76.97 235.05 74.69"/><polygon class="cls-3" points="167.72 84.15 168.17 84.4 168.17 86.68 167.71 86.44 167.72 84.15"/><polygon class="cls-3" points="163.27 87.06 163.72 87.31 163.66 122.49 163.2 122.24 163.27 87.06"/><polygon class="cls-5" points="163.73 85.03 168.17 84.4 168.17 86.68 168.1 121.86 163.66 122.49 163.72 87.31 163.73 85.03"/><polygon class="cls-3" points="163.27 84.78 163.73 85.03 163.72 87.31 163.27 87.06 163.27 84.78"/><polygon class="cls-4" points="167.72 84.15 168.17 84.4 163.73 85.03 163.27 84.78 167.72 84.15"/><polygon class="cls-3" points="149.35 86.73 149.81 86.98 149.8 89.27 149.35 89.02 149.35 86.73"/><polygon class="cls-3" points="144.89 89.64 145.35 89.89 145.28 125.07 144.83 124.82 144.89 89.64"/><polygon class="cls-4" points="149.35 86.73 149.81 86.98 145.35 87.61 144.9 87.36 149.35 86.73"/><polygon class="cls-5" points="145.35 87.61 149.81 86.98 149.8 89.27 149.74 124.44 145.28 125.07 145.35 89.89 145.35 87.61"/><polygon class="cls-3" points="144.9 87.36 145.35 87.61 145.35 89.89 144.89 89.64 144.9 87.36"/><polygon class="cls-3" points="95.38 94.32 95.83 94.57 95.83 96.85 95.37 96.6 95.38 94.32"/><polygon class="cls-3" points="90.92 97.23 91.37 97.48 91.31 132.66 90.85 132.41 90.92 97.23"/><polygon class="cls-4" points="95.38 94.32 95.83 94.57 91.38 95.19 90.92 94.95 95.38 94.32"/><polygon class="cls-5" points="91.38 95.19 95.83 94.57 95.83 96.85 95.76 132.03 91.31 132.66 91.37 97.48 91.38 95.19"/><polygon class="cls-3" points="90.92 94.95 91.38 95.19 91.37 97.48 90.92 97.23 90.92 94.95"/><polygon class="cls-3" points="77.01 96.9 77.46 97.15 77.46 99.43 77 99.18 77.01 96.9"/><polygon class="cls-3" points="72.55 99.81 73.01 100.06 72.94 135.24 72.48 134.99 72.55 99.81"/><polygon class="cls-4" points="77.01 96.9 77.46 97.15 73.01 97.78 72.56 97.53 77.01 96.9"/><polygon class="cls-5" points="73.01 97.78 77.46 97.15 77.46 99.43 77.39 134.61 72.94 135.24 73.01 100.06 73.01 97.78"/><polygon class="cls-3" points="72.56 97.53 73.01 97.78 73.01 100.06 72.55 99.81 72.56 97.53"/><polygon class="cls-3" points="23.03 104.49 23.49 104.73 23.49 107.02 23.03 106.77 23.03 104.49"/><polygon class="cls-3" points="18.58 107.39 19.03 107.64 18.97 142.82 18.51 142.58 18.58 107.39"/><polygon class="cls-4" points="23.03 104.49 23.49 104.73 19.04 105.36 18.58 105.11 23.03 104.49"/><polygon class="cls-5" points="19.04 105.36 23.49 104.73 23.49 107.02 23.42 142.2 18.97 142.82 19.03 107.64 19.04 105.36"/><polygon class="cls-3" points="18.58 105.11 19.04 105.36 19.03 107.64 18.58 107.39 18.58 105.11"/><polygon class="cls-3" points="4.66 107.07 5.11 107.32 5.11 109.6 4.65 109.35 4.66 107.07"/><polygon class="cls-3" points="0.21 109.98 0.66 110.22 0.6 145.41 0.14 145.16 0.21 109.98"/><polygon class="cls-5" points="0.67 107.94 5.11 107.32 5.11 109.6 5.04 144.78 0.6 145.41 0.66 110.22 0.67 107.94"/><polygon class="cls-3" points="0.21 107.69 0.67 107.94 0.66 110.22 0.21 109.98 0.21 107.69"/><polygon class="cls-4" points="4.66 107.07 5.11 107.32 0.67 107.94 0.21 107.69 4.66 107.07"/><polygon class="cls-5" points="0.49 91.03 330.7 44.63 330.66 63.85 330.67 61.56 326.21 62.19 326.21 64.47 312.29 66.43 312.3 64.15 307.84 64.77 307.84 67.05 258.32 74.01 258.32 71.73 253.87 72.36 253.87 74.64 239.94 76.6 239.95 74.31 235.5 74.94 235.5 77.22 168.17 86.68 168.17 84.4 163.73 85.03 163.72 87.31 149.8 89.27 149.81 86.98 145.35 87.61 145.35 89.89 95.83 96.85 95.83 94.57 91.38 95.19 91.37 97.48 77.46 99.43 77.46 97.15 73.01 97.78 73.01 100.06 23.49 107.02 23.49 104.73 19.04 105.36 19.03 107.64 5.11 109.6 5.11 107.32 0.67 107.94 0.46 110.25 0.49 91.03"/><polygon class="cls-4" points="330.24 44.38 330.7 44.63 0.49 91.03 0.04 90.79 330.24 44.38"/><polygon class="cls-3" points="0.04 90.79 0.49 91.03 0.46 110.25 0 110.01 0.04 90.79"/></g><g class="cls-2"><polygon class="cls-4" points="303.55 42.37 304.01 42.62 297.78 43.5 297.32 43.25 303.55 42.37"/><polygon class="cls-3" points="303.58 27.96 304.04 28.21 304.01 42.62 303.55 42.37 303.58 27.96"/><g class="cls-2"><g class="cls-6"><g class="cls-2"><path class="cls-7" d="M329.05,23.7l.46.24-.24-.12-.45-.24a1.27,1.27,0,0,1,.23.12" transform="translate(-20.14)"/><path class="cls-8" d="M328.82,23.58l.45.24a6.26,6.26,0,0,0-1.21-.45l-.46-.24a6.36,6.36,0,0,1,1.22.45" transform="translate(-20.14)"/><path class="cls-9" d="M327.6,23.13l.46.24a6.92,6.92,0,0,0-2.66-.13l-.46-.25a6.72,6.72,0,0,1,2.66.14" transform="translate(-20.14)"/></g></g></g><polygon class="cls-10" points="303.58 27.96 304.04 28.21 297.8 29.08 297.35 28.84 303.58 27.96"/><polygon class="cls-11" points="297.35 28.84 297.8 29.08 297.78 43.5 297.32 43.25 297.35 28.84"/><polygon class="cls-12" points="297.8 29.08 304.04 28.21 304.01 42.62 297.78 43.5 297.8 29.08"/><polygon class="cls-4" points="291.83 44.02 292.29 44.27 286.06 45.14 285.6 44.9 291.83 44.02"/><polygon class="cls-3" points="291.86 29.61 292.32 29.86 292.29 44.27 291.83 44.02 291.86 29.61"/><polygon class="cls-11" points="285.63 30.48 286.08 30.73 286.06 45.14 285.6 44.9 285.63 30.48"/><polygon class="cls-12" points="286.08 30.73 292.32 29.86 292.29 44.27 286.06 45.14 286.08 30.73"/><polygon class="cls-10" points="291.86 29.61 292.32 29.86 286.08 30.73 285.63 30.48 291.86 29.61"/><polygon class="cls-4" points="280.12 45.67 280.57 45.91 274.34 46.79 273.88 46.54 280.12 45.67"/><polygon class="cls-3" points="280.14 31.25 280.6 31.5 280.57 45.91 280.12 45.67 280.14 31.25"/><polygon class="cls-4" points="286.54 19.79 286.99 20.04 280.76 20.92 280.31 20.67 286.54 19.79"/><polygon class="cls-10" points="280.14 31.25 280.6 31.5 274.37 32.38 273.91 32.13 280.14 31.25"/><polygon class="cls-11" points="273.91 32.13 274.37 32.38 274.34 46.79 273.88 46.54 273.91 32.13"/><polygon class="cls-12" points="274.37 32.38 280.6 31.5 280.57 45.91 274.34 46.79 274.37 32.38"/><g class="cls-2"><g class="cls-13"><g class="cls-2"><path class="cls-7" d="M314.21.72l.45.25-.22-.11L314,.61l.22.11" transform="translate(-20.14)"/><path class="cls-8" d="M314,.61l.45.25a5.26,5.26,0,0,0-1.13-.42l-.45-.25A5.69,5.69,0,0,1,314,.61" transform="translate(-20.14)"/><path class="cls-9" d="M312.86.19l.45.25a6.38,6.38,0,0,0-2.48-.13l-.45-.24a6.21,6.21,0,0,1,2.48.12" transform="translate(-20.14)"/></g></g></g><polygon class="cls-3" points="286.56 5.38 287.02 5.63 286.99 20.04 286.54 19.79 286.56 5.38"/><polygon class="cls-4" points="268.4 47.31 268.85 47.56 262.62 48.44 262.16 48.19 268.4 47.31"/><polygon class="cls-3" points="268.42 32.9 268.88 33.15 268.85 47.56 268.4 47.31 268.42 32.9"/><polygon class="cls-11" points="280.33 6.26 280.79 6.5 280.76 20.92 280.31 20.67 280.33 6.26"/><polygon class="cls-12" points="280.79 6.5 287.02 5.63 286.99 20.04 280.76 20.92 280.79 6.5"/><polygon class="cls-10" points="286.56 5.38 287.02 5.63 280.79 6.5 280.33 6.26 286.56 5.38"/><polygon class="cls-4" points="274.82 21.44 275.27 21.69 269.04 22.56 268.59 22.32 274.82 21.44"/><polygon class="cls-10" points="268.42 32.9 268.88 33.15 262.65 34.02 262.19 33.78 268.42 32.9"/><polygon class="cls-11" points="262.19 33.78 262.65 34.02 262.62 48.44 262.16 48.19 262.19 33.78"/><polygon class="cls-12" points="262.65 34.02 268.88 33.15 268.85 47.56 262.62 48.44 262.65 34.02"/><polygon class="cls-3" points="274.85 7.03 275.3 7.28 275.27 21.69 274.82 21.44 274.85 7.03"/><polygon class="cls-4" points="256.68 48.96 257.13 49.21 250.9 50.09 250.44 49.84 256.68 48.96"/><polygon class="cls-3" points="256.7 34.55 257.16 34.8 257.13 49.21 256.68 48.96 256.7 34.55"/><polygon class="cls-10" points="274.85 7.03 275.3 7.28 269.07 8.15 268.61 7.9 274.85 7.03"/><polygon class="cls-11" points="268.61 7.9 269.07 8.15 269.04 22.56 268.59 22.32 268.61 7.9"/><polygon class="cls-4" points="263.1 23.09 263.56 23.34 257.32 24.21 256.87 23.96 263.1 23.09"/><polygon class="cls-3" points="263.13 8.67 263.58 8.92 263.56 23.34 263.1 23.09 263.13 8.67"/><polygon class="cls-11" points="256.89 9.55 257.35 9.8 257.32 24.21 256.87 23.96 256.89 9.55"/><polygon class="cls-10" points="263.13 8.67 263.58 8.92 257.35 9.8 256.89 9.55 263.13 8.67"/><polygon class="cls-12" points="257.35 9.8 263.58 8.92 263.56 23.34 257.32 24.21 257.35 9.8"/><polygon class="cls-4" points="251.38 24.73 251.84 24.98 245.6 25.86 245.15 25.61 251.38 24.73"/><polygon class="cls-3" points="251.41 10.32 251.86 10.57 251.84 24.98 251.38 24.73 251.41 10.32"/><polygon class="cls-10" points="251.41 10.32 251.86 10.57 245.63 11.45 245.17 11.2 251.41 10.32"/><polygon class="cls-11" points="245.17 11.2 245.63 11.45 245.6 25.86 245.15 25.61 245.17 11.2"/><polygon class="cls-4" points="304.81 22.99 305.26 23.24 228.56 34.02 228.1 33.77 304.81 22.99"/><path class="cls-5" d="M263.85,6.92l47-6.61C314.79-.24,318,2.77,318,7l0,17.26L255.64,33l0-16.17C255.68,12,259.34,7.55,263.85,6.92Zm37,14,6.23-.88,0-14.41-6.24.87,0,14.42m-11.72,1.64,6.23-.87,0-14.41-6.23.87,0,14.41m-11.72,1.65,6.23-.87,0-14.42-6.23.88,0,14.41m-11.72,1.65L272,25l0-14.41-6.23.88,0,14.41" transform="translate(-20.14)"/><polygon class="cls-12" points="269.07 8.15 275.3 7.28 275.27 21.69 269.04 22.56 269.07 8.15"/><polygon class="cls-10" points="256.7 34.55 257.16 34.8 250.93 35.67 250.47 35.42 256.7 34.55"/><polygon class="cls-11" points="250.47 35.42 250.93 35.67 250.9 50.09 250.44 49.84 250.47 35.42"/><polygon class="cls-12" points="250.93 35.67 257.16 34.8 257.13 49.21 250.9 50.09 250.93 35.67"/><polygon class="cls-4" points="244.96 50.61 245.41 50.86 239.18 51.73 238.72 51.48 244.96 50.61"/><polygon class="cls-3" points="244.98 36.2 245.44 36.44 245.41 50.86 244.96 50.61 244.98 36.2"/><polygon class="cls-10" points="244.98 36.2 245.44 36.44 239.21 37.32 238.75 37.07 244.98 36.2"/><polygon class="cls-11" points="238.75 37.07 239.21 37.32 239.18 51.73 238.72 51.48 238.75 37.07"/><polygon class="cls-12" points="239.21 37.32 245.44 36.44 245.41 50.86 239.18 51.73 239.21 37.32"/><polygon class="cls-4" points="233.24 52.26 233.69 52.5 227.46 53.38 227.01 53.13 233.24 52.26"/><polygon class="cls-3" points="233.26 37.84 233.72 38.09 233.69 52.5 233.24 52.26 233.26 37.84"/><polygon class="cls-12" points="245.63 11.45 251.86 10.57 251.84 24.98 245.6 25.86 245.63 11.45"/><polygon class="cls-10" points="233.26 37.84 233.72 38.09 227.49 38.97 227.03 38.72 233.26 37.84"/><polygon class="cls-12" points="227.49 38.97 233.72 38.09 233.69 52.5 227.46 53.38 227.49 38.97"/><polygon class="cls-11" points="227.03 38.72 227.49 38.97 227.46 53.38 227.01 53.13 227.03 38.72"/><polygon class="cls-4" points="290.24 0.07 290.7 0.31 243.71 6.92 243.25 6.67 290.24 0.07"/><polygon class="cls-3" points="235.08 16.62 235.54 16.87 235.51 33.04 235.05 32.79 235.08 16.62"/><polygon class="cls-3" points="219.9 43.74 220.36 43.99 220.33 60.14 219.87 59.89 219.9 43.74"/><g class="cls-2"><g class="cls-14"><g class="cls-2"><path class="cls-9" d="M263.39,6.67l.46.25a8.34,8.34,0,0,0-2.39.71L261,7.39a8.2,8.2,0,0,1,2.38-.72" transform="translate(-20.14)"/><path class="cls-8" d="M261,7.39l.45.24a9.67,9.67,0,0,0-1.32.77l-.46-.25A8.78,8.78,0,0,1,261,7.39" transform="translate(-20.14)"/><path class="cls-7" d="M259.68,8.15l.46.25a12.1,12.1,0,0,0-1,.78l-.45-.25a10.47,10.47,0,0,1,1-.78" transform="translate(-20.14)"/><path class="cls-15" d="M258.7,8.93l.45.25a9.41,9.41,0,0,0-.83.84l-.46-.25a9.51,9.51,0,0,1,.84-.84" transform="translate(-20.14)"/><path class="cls-16" d="M257.86,9.77l.46.25a10.64,10.64,0,0,0-.73.93l-.46-.25c.23-.32.47-.63.73-.93" transform="translate(-20.14)"/><path class="cls-17" d="M257.13,10.7l.46.25a10.16,10.16,0,0,0-.67,1.08l-.46-.25c.21-.37.43-.73.67-1.08" transform="translate(-20.14)"/><path class="cls-18" d="M256.46,11.78l.46.25a11.26,11.26,0,0,0-.62,1.37l-.45-.25a11.2,11.2,0,0,1,.61-1.37" transform="translate(-20.14)"/><path class="cls-19" d="M255.85,13.15l.45.25a10.4,10.4,0,0,0-.63,3.47l-.45-.25a9.92,9.92,0,0,1,.63-3.47" transform="translate(-20.14)"/></g></g></g><path class="cls-5" d="M248.69,34,325.4,23.24c4.24-.6,7.67,2.63,7.67,7.2l0,16.69-92.56,13,0-16.15C240.51,39.12,244.17,34.65,248.69,34Zm10.63,17.71,6.23-.87,0-14.42-6.24.88,0,14.41M247.6,53.38l6.23-.88,0-14.41-6.24.88,0,14.41m46.88-6.59,6.23-.88,0-14.41-6.23.88,0,14.41m-11.72,1.65,6.23-.88,0-14.41-6.23.88,0,14.41M271,50.08l6.23-.87,0-14.41-6.24.87,0,14.41m35.15-4.94,6.24-.87,0-14.41-6.23.87,0,14.41m11.72-1.64,6.24-.88,0-14.41-6.23.87,0,14.42" transform="translate(-20.14)"/><g class="cls-2"><g class="cls-20"><g class="cls-2"><path class="cls-9" d="M248.24,33.77l.45.25a8.35,8.35,0,0,0-2.39.72l-.46-.25a8.65,8.65,0,0,1,2.4-.72" transform="translate(-20.14)"/><path class="cls-8" d="M245.84,34.49l.46.25a8.84,8.84,0,0,0-1.33.77l-.46-.25a9.36,9.36,0,0,1,1.33-.77" transform="translate(-20.14)"/><path class="cls-7" d="M244.51,35.26l.46.25a9.17,9.17,0,0,0-1,.78l-.46-.25a12.1,12.1,0,0,1,1-.78" transform="translate(-20.14)"/><path class="cls-15" d="M243.52,36l.46.25a9.41,9.41,0,0,0-.83.84l-.46-.25a11,11,0,0,1,.83-.84" transform="translate(-20.14)"/><path class="cls-16" d="M242.69,36.88l.46.25a9.55,9.55,0,0,0-.74.94l-.46-.25a11.33,11.33,0,0,1,.74-.94" transform="translate(-20.14)"/><path class="cls-17" d="M242,37.82l.46.25c-.24.34-.46.7-.67,1.07l-.45-.24a9.72,9.72,0,0,1,.66-1.08" transform="translate(-20.14)"/><path class="cls-18" d="M241.29,38.9l.45.24a12.06,12.06,0,0,0-.61,1.38l-.46-.25a9.91,9.91,0,0,1,.62-1.37" transform="translate(-20.14)"/><path class="cls-19" d="M240.67,40.27l.46.25A9.92,9.92,0,0,0,240.5,44l-.46-.25a10.15,10.15,0,0,1,.63-3.47" transform="translate(-20.14)"/></g></g></g></g></g></g></g></svg>