<svg xmlns="http://www.w3.org/2000/svg" viewBox="0 0 882.55 1305.09"><defs><style>.cls-1{font-size:51.1px;fill:#9c7a57;font-family:DayPosterBlackNF, Day Poster Black NF;}</style></defs><g id="Layer_2" data-name="Layer 2"><g id="Layer_14" data-name="Layer 14"><text class="cls-1" transform="translate(38.87 46.04)">c<tspan x="31.84" y="0">a</tspan><tspan x="68.95" y="0">s</tspan><tspan x="95.87" y="0">i</tspan><tspan x="112.91" y="0">n</tspan><tspan x="145.96" y="0">o</tspan><tspan x="183.52" y="0"> </tspan><tspan x="202.64" y="0">,</tspan><tspan x="216.44" y="0"> </tspan><tspan x="235.56" y="0">p</tspan><tspan x="267.25" y="0">i</tspan><tspan x="284.28" y="0">e</tspan><tspan x="311.47" y="0">r</tspan><tspan x="350.7" y="0"> </tspan><tspan x="369.82" y="0">,</tspan><tspan x="383.62" y="0"> </tspan><tspan x="402.73" y="0">t</tspan><tspan x="440.14" y="0">h</tspan><tspan x="476.95" y="0">e</tspan><tspan x="504.13" y="0">a</tspan><tspan x="535.73" y="0">t</tspan><tspan x="573.15" y="0">e</tspan><tspan x="600.34" y="0">r</tspan><tspan x="639.58" y="0"> </tspan><tspan x="658.69" y="0">,</tspan><tspan x="672.5" y="0"> </tspan><tspan x="691.61" y="0">g</tspan><tspan x="726.88" y="0">r</tspan><tspan x="766.12" y="0">a</tspan></text><text class="cls-1" transform="translate(836.5 47.16) rotate(90.96)">n<tspan x="33.06" y="0">d</tspan><tspan x="67.57" y="0">h</tspan><tspan x="104.37" y="0">o</tspan><tspan x="141.92" y="0">t</tspan></text><text class="cls-1" transform="translate(833.52 226.22) rotate(90.96)">e</text><text class="cls-1" transform="translate(833.06 253.39) rotate(90.96)">l</text><text class="cls-1" transform="translate(832.61 280.53) rotate(90.96)">,</text><text class="cls-1" transform="translate(832.38 294.29) rotate(90.96)"> <tspan x="19.13" y="0">s</tspan><tspan x="46.06" y="0">a</tspan></text><text class="cls-1" transform="translate(831.11 370.4) rotate(90.96)">v<tspan x="36.59" y="0">o</tspan><tspan x="70.79" y="0">y</tspan><tspan x="109.73" y="0"> </tspan><tspan x="128.84" y="0">h</tspan><tspan x="165.64" y="0">o</tspan><tspan x="203.19" y="0">t</tspan><tspan x="240.63" y="0">e</tspan><tspan x="267.8" y="0">l</tspan></text><text class="cls-1" transform="translate(826.2 664.98) rotate(90.96)">,</text><text class="cls-1" transform="translate(825.97 678.76) rotate(90.96)"> <tspan x="19.11" y="0">h</tspan></text><text class="cls-1" transform="translate(825.04 734.59) rotate(90.96)">o<tspan x="37.56" y="0">t</tspan></text><text class="cls-1" transform="translate(823.79 809.47) rotate(90.96)">e</text><text class="cls-1" transform="translate(823.34 836.61) rotate(90.96)">l</text><text class="cls-1" transform="translate(822.89 863.78) rotate(90.96)"> <tspan x="19.11" y="0">r</tspan><tspan x="58.36" y="0">a</tspan><tspan x="95.46" y="0">u</tspan><tspan x="127.5" y="0">c</tspan><tspan x="159.35" y="0">h</tspan></text><text class="cls-1" transform="translate(819.62 1059.63) rotate(90.96)">,</text><text class="cls-1" transform="translate(819.39 1073.41) rotate(90.96)"> <tspan x="19.12" y="0">c</tspan><tspan x="50.98" y="0">o</tspan><tspan x="88.53" y="0">l</tspan><tspan x="115.72" y="0">f</tspan><tspan x="142.91" y="0">l</tspan><tspan x="170.09" y="0">i</tspan></text><text class="cls-1" transform="translate(818.54 1259.04) rotate(180)">n<tspan x="33.06" y="0">k</tspan><tspan x="72.83" y="0">s</tspan><tspan x="99.75" y="0">.</tspan><tspan x="113.58" y="0">(</tspan><tspan x="131.9" y="0">1</tspan><tspan x="157.12" y="0">8</tspan><tspan x="196.37" y="0"> </tspan><tspan x="215.47" y="0">h</tspan><tspan x="252.27" y="0">o</tspan><tspan x="289.82" y="0">l</tspan><tspan x="317.03" y="0">e</tspan><tspan x="344.23" y="0">s</tspan><tspan x="371.16" y="0">)</tspan><tspan x="389.49" y="0">,</tspan><tspan x="403.31" y="0"> </tspan><tspan x="422.4" y="0">t</tspan><tspan x="459.83" y="0">e</tspan><tspan x="487.02" y="0">n</tspan><tspan x="520.08" y="0">n</tspan><tspan x="553.15" y="0">i</tspan><tspan x="570.18" y="0">s</tspan><tspan x="597.1" y="0">,</tspan><tspan x="610.9" y="0"> </tspan><tspan x="630.03" y="0">p</tspan><tspan x="656.25" y="0">a</tspan><tspan x="693.36" y="0">l</tspan><tspan x="720.55" y="0">a</tspan><tspan x="756.81" y="0">c</tspan></text><text class="cls-1" transform="translate(46.04 1246.53) rotate(-90)">e<tspan x="27.2" y="0"> </tspan><tspan x="46.31" y="0">h</tspan><tspan x="83.1" y="0">o</tspan><tspan x="120.67" y="0">t</tspan><tspan x="158.08" y="0">e</tspan><tspan x="185.26" y="0">l</tspan><tspan x="212.43" y="0">,</tspan><tspan x="226.25" y="0"> </tspan><tspan x="245.37" y="0">h</tspan><tspan x="282.16" y="0">o</tspan><tspan x="319.73" y="0">t</tspan><tspan x="357.11" y="0">e</tspan><tspan x="384.32" y="0">l</tspan><tspan x="411.51" y="0"> </tspan><tspan x="430.63" y="0">d</tspan><tspan x="465.12" y="0">&apos;</tspan><tspan x="477.53" y="0">o</tspan><tspan x="515.11" y="0">r</tspan><tspan x="554.36" y="0">a</tspan><tspan x="591.44" y="0">n</tspan><tspan x="624.51" y="0">g</tspan><tspan x="659.79" y="0">e</tspan><tspan x="686.98" y="0">&apos;</tspan><tspan x="699.39" y="0"> </tspan><tspan x="718.5" y="0">h</tspan><tspan x="755.29" y="0">o</tspan><tspan x="792.86" y="0">t</tspan><tspan x="830.25" y="0">e</tspan><tspan x="857.44" y="0">m</tspan><tspan x="897.66" y="0"> </tspan><tspan x="916.79" y="0">k</tspan><tspan x="956.54" y="0">u</tspan><tspan x="988.59" y="0">r</tspan><tspan x="1027.83" y="0">h</tspan><tspan x="1064.63" y="0">a</tspan><tspan x="1101.72" y="0">u</tspan><tspan x="1133.77" y="0">s</tspan></text><text class="cls-1" transform="translate(44.59 89.3)"> </text></g></g></svg>