<svg width="544" height="816" viewBox="0 0 544 816" fill="none" xmlns="http://www.w3.org/2000/svg">
<g id="Layer 2">
<g id="vrouwtjeBlauw">
<g id="vrouwtje bruin">
<path id="Vector" d="M337.074 812.333C336.334 769.459 332.069 726.718 324.324 684.543C315.08 634.198 300.929 584.88 282.074 537.293C282.074 537.293 288.074 312.293 282.074 308.293C282.074 308.293 318.074 305.293 314.074 264.293C314.074 264.293 337.074 239.293 324.074 209.293C324.074 209.293 346.074 137.293 317.074 124.293C317.074 124.293 320.074 67.2929 279.074 56.2929C279.074 56.2929 264.074 20.2929 234.074 23.2929C234.074 23.2929 190.074 -14.7071 143.074 13.2929C143.074 13.2929 122.074 -1.7071 89.0744 34.2929C89.0744 34.2929 18.0744 50.2929 6.07438 133.293C-5.92562 216.293 21.0744 253.293 21.0744 253.293L18.0744 348.293L43.0744 348.123C44.2992 353.372 44.9695 358.734 45.0744 364.123C45.1788 369.718 44.6691 375.309 43.5544 380.793C48.3944 383.853 53.9644 388.603 56.5544 395.793C58.8844 402.253 57.1444 406.063 59.5544 408.793C62.5544 412.123 70.6744 412.793 92.5544 402.793C89.8866 407.31 88.829 412.598 89.5544 417.793C91.0944 427.793 99.0544 432.793 100.554 433.793C105.764 437.113 110.764 437.493 115.554 437.793C125.037 438.293 134.493 436.401 143.054 432.293C140.054 463.493 137.934 496.903 137.054 532.293C136.194 567.293 136.664 600.293 138.054 631.293C89.9023 682.4 55.7966 745.1 39.0544 813.293L337.074 812.333Z" fill="#AB7B4B" stroke="#F7EEDC" stroke-width="5" stroke-miterlimit="10"/>
<path id="Vector_2" d="M46.5744 380.333C47.1144 378.763 50.1344 378.043 52.9344 378.263L79.5744 380.333C75.4877 388.42 71.391 396.506 67.2844 404.593C65.7244 406.853 63.9944 408.673 62.5744 408.333C60.0344 407.733 61.7344 400.993 58.0744 393.833C53.8244 385.543 45.6344 383.103 46.5744 380.333Z" fill="#7E1911"/>
<path id="Vector_3" d="M280.504 309.333C280.504 309.333 315.864 306.333 311.934 265.283C311.934 265.283 334.534 240.283 321.764 210.213C321.764 210.213 343.374 138.123 314.884 125.103C314.884 125.103 317.834 68.0329 277.554 57.0229C277.554 57.0229 262.824 21.0229 233.354 24.0229C233.354 24.0229 190.134 -13.9771 143.974 14.0229C143.974 14.0229 123.344 -0.977119 90.9744 35.0229C90.9744 35.0229 58.9144 42.3929 34.5944 73.0229C16.5944 95.7129 12.1044 119.863 9.45443 134.123C7.12791 146.664 6.24882 159.431 6.83443 172.173C66.6644 172.663 98.0244 163.573 115.754 154.553C119.854 152.473 133.094 145.373 139.934 150.643C145.784 155.153 141.204 164.273 143.864 182.643C147.104 205.093 155.964 205.743 156.144 223.193C156.324 240.643 147.474 244.833 151.724 256.733C155.974 268.633 168.254 274.913 171.504 276.543C178.994 280.393 182.354 279.443 191.914 282.763C200.444 285.744 208.412 290.139 215.484 295.763C224.484 302.984 235.065 307.973 246.362 310.323C257.659 312.673 269.352 312.316 280.484 309.283L280.504 309.333Z" fill="#778EAE"/>
<path id="Vector_4" d="M123.074 651.833C83.6606 695.499 60.0643 751.144 56.0743 809.833H163.074C162.022 778.388 166.075 746.98 175.074 716.833C179.584 701.833 192.124 664.623 221.074 633.833C231.314 622.943 241.074 615.543 254.074 613.833C267.924 612.013 279.404 617.463 285.074 620.713C285.074 620.713 314.524 642.273 317.374 653.053C317.434 653.253 318.024 655.053 318.044 655.053C318.064 655.053 312.924 638.943 308.044 623.883C285.184 607.603 266.044 604.093 253.044 603.883C188.724 602.883 121.134 679.943 93.0443 798.123C88.3788 738.226 107.41 678.891 146.044 632.883L140.044 630.883" fill="#7B89A4"/>
<path id="Vector_5" d="M31.0743 236.833C31.0743 236.833 76.0743 220.833 106.074 239.833" stroke="#3C1C0F" stroke-width="3" stroke-miterlimit="10"/>
<path id="Vector_6" d="M33.5743 257.333C42.1817 258.387 50.8811 258.457 59.5043 257.543L61.5643 257.303C85.7443 254.303 103.444 244.003 103.564 244.303C103.684 244.603 87.5043 251.753 73.5043 258.083C66.9743 261.033 61.5043 263.533 57.6143 265.333" stroke="#3C1C0F" stroke-width="3" stroke-miterlimit="10"/>
<path id="Vector_7" d="M67.3788 260.296C70.3593 259.711 72.646 258.577 72.4862 257.764C72.3264 256.951 69.7807 256.767 66.8002 257.353C63.8196 257.939 61.533 259.073 61.6927 259.885C61.8525 260.698 64.3982 260.882 67.3788 260.296Z" stroke="#3C1C0F" stroke-width="3" stroke-miterlimit="10"/>
<path id="Vector_8" d="M318.074 656.323C318.074 656.323 254.774 543.323 182.964 694.963C182.964 694.963 154.614 795.443 166.894 812.833" stroke="#F7EEDC" stroke-width="5" stroke-miterlimit="10"/>
</g>
</g>
<g id="vrouwtjeGeel">
<g id="vrouwtje bruin_2">
<path id="Vector_9" d="M439.074 812.333C438.334 769.459 434.069 726.718 426.324 684.543C417.08 634.198 402.929 584.88 384.074 537.293C384.074 537.293 390.074 312.293 384.074 308.293C384.074 308.293 420.074 305.293 416.074 264.293C416.074 264.293 439.074 239.293 426.074 209.293C426.074 209.293 448.074 137.293 419.074 124.293C419.074 124.293 422.074 67.2929 381.074 56.2929C381.074 56.2929 366.074 20.2929 336.074 23.2929C336.074 23.2929 292.074 -14.7071 245.074 13.2929C245.074 13.2929 224.074 -1.7071 191.074 34.2929C191.074 34.2929 120.074 50.2929 108.074 133.293C96.0744 216.293 123.074 253.293 123.074 253.293L120.074 348.293L145.074 348.123C147.586 358.851 147.75 369.996 145.554 380.793C150.394 383.853 155.964 388.603 158.554 395.793C160.884 402.253 159.144 406.063 161.554 408.793C164.554 412.123 172.674 412.793 194.554 402.793C191.887 407.31 190.829 412.598 191.554 417.793C193.094 427.793 201.054 432.793 202.554 433.793C207.764 437.113 212.764 437.493 217.554 437.793C227.037 438.293 236.493 436.401 245.054 432.293C242.054 463.493 239.934 496.903 239.054 532.293C238.194 567.293 238.664 600.293 240.054 631.293C191.902 682.4 157.797 745.1 141.054 813.293L439.074 812.333Z" fill="#AB7B4B" stroke="#F7EEDC" stroke-width="5" stroke-miterlimit="10"/>
<path id="Vector_10" d="M148.574 380.333C149.114 378.763 152.134 378.043 154.934 378.263L181.574 380.333C177.488 388.42 173.391 396.506 169.284 404.593C167.724 406.853 165.994 408.673 164.574 408.333C162.034 407.733 163.734 400.993 160.074 393.833C155.824 385.543 147.634 383.103 148.574 380.333Z" fill="#7E1911"/>
<path id="Vector_11" d="M382.504 309.333C382.504 309.333 417.864 306.333 413.934 265.283C413.934 265.283 436.534 240.283 423.764 210.213C423.764 210.213 445.374 138.123 416.884 125.103C416.884 125.103 419.834 68.0329 379.554 57.0229C379.554 57.0229 364.824 21.0229 335.354 24.0229C335.354 24.0229 292.134 -13.9771 245.974 14.0229C245.974 14.0229 225.344 -0.977119 192.974 35.0229C192.974 35.0229 160.914 42.3929 136.594 73.0229C118.594 95.7129 114.104 119.863 111.454 134.123C109.128 146.664 108.249 159.431 108.834 172.173C168.664 172.663 200.024 163.573 217.754 154.553C221.854 152.473 235.094 145.373 241.934 150.643C247.784 155.153 243.204 164.273 245.864 182.643C249.104 205.093 257.964 205.743 258.144 223.193C258.324 240.643 249.474 244.833 253.724 256.733C257.974 268.633 270.254 274.913 273.504 276.543C280.994 280.393 284.354 279.443 293.914 282.763C302.444 285.744 310.412 290.139 317.484 295.763C326.484 302.984 337.065 307.973 348.362 310.323C359.659 312.673 371.352 312.316 382.484 309.283L382.504 309.333Z" fill="#E5BF38"/>
<path id="Vector_12" d="M225.074 651.833C185.661 695.499 162.064 751.144 158.074 809.833H265.074C264.023 778.388 268.075 746.98 277.074 716.833C281.584 701.833 294.124 664.623 323.074 633.833C333.314 622.943 343.074 615.543 356.074 613.833C369.924 612.013 381.404 617.463 387.074 620.713C387.074 620.713 416.524 642.273 419.374 653.053C419.434 653.253 420.024 655.053 420.044 655.053C420.064 655.053 414.924 638.943 410.044 623.883C387.184 607.603 368.044 604.093 355.044 603.883C290.724 602.883 223.134 679.943 195.044 798.123C190.379 738.226 209.41 678.891 248.044 632.883L242.044 630.883" fill="#E2D9C8"/>
<path id="Vector_13" d="M133.074 236.833C133.074 236.833 178.074 220.833 208.074 239.833" stroke="#3C1C0F" stroke-width="3" stroke-miterlimit="10"/>
<path id="Vector_14" d="M135.574 257.333C144.182 258.387 152.881 258.457 161.504 257.543L163.564 257.303C187.744 254.303 205.444 244.003 205.564 244.303C205.684 244.603 189.504 251.753 175.504 258.083C168.974 261.033 163.504 263.533 159.614 265.333" stroke="#3C1C0F" stroke-width="3" stroke-miterlimit="10"/>
<path id="Vector_15" d="M169.384 260.284C172.364 259.698 174.651 258.565 174.491 257.752C174.331 256.939 171.786 256.755 168.805 257.341C165.825 257.926 163.538 259.06 163.698 259.873C163.858 260.686 166.403 260.87 169.384 260.284Z" stroke="#3C1C0F" stroke-width="3" stroke-miterlimit="10"/>
<path id="Vector_16" d="M420.074 656.323C420.074 656.323 356.774 543.323 284.964 694.963C284.964 694.963 256.614 795.443 268.894 812.833" stroke="#F7EEDC" stroke-width="5" stroke-miterlimit="10"/>
</g>
</g>
<g id="vrouwtjeInDeZee">
<g id="vrouwtje bruin_3">
<path id="Vector_17" d="M540.694 812.333C539.944 769.459 535.68 726.72 527.944 684.543C518.7 634.198 504.549 584.88 485.694 537.293C485.694 537.293 491.694 312.293 485.694 308.293C485.694 308.293 521.694 305.293 517.694 264.293C517.694 264.293 540.694 239.293 527.694 209.293C527.694 209.293 549.694 137.293 520.694 124.293C520.694 124.293 523.694 67.2929 482.694 56.2929C482.694 56.2929 467.695 20.2929 437.695 23.2929C437.695 23.2929 393.695 -14.7071 346.695 13.2929C346.695 13.2929 325.694 -1.7071 292.694 34.2929C292.694 34.2929 221.694 50.2929 209.694 133.293C197.694 216.293 224.694 253.293 224.694 253.293L221.694 348.293L246.694 348.123C249.203 358.851 249.37 369.994 247.184 380.793C252.014 383.853 257.594 388.603 260.184 395.793C262.504 402.253 260.764 406.063 263.184 408.793C266.124 412.123 274.294 412.793 296.184 402.793C293.507 407.306 292.449 412.597 293.184 417.793C294.724 427.793 302.674 432.793 304.184 433.793C309.394 437.113 314.384 437.493 319.184 437.793C328.667 438.291 338.123 436.4 346.684 432.293C343.684 463.493 341.554 496.903 340.684 532.293C339.824 567.293 340.294 600.293 341.684 631.293C293.523 682.393 259.416 745.096 242.684 813.293L540.694 812.333Z" fill="#AB7B4B" stroke="#F7EEDC" stroke-width="5" stroke-miterlimit="10"/>
<path id="Vector_18" d="M250.195 380.333C250.735 378.763 253.755 378.043 256.555 378.263L283.195 380.333L270.905 404.593C269.335 406.853 267.615 408.673 266.195 408.333C263.655 407.733 265.355 400.993 261.695 393.833C257.445 385.543 249.255 383.103 250.195 380.333Z" fill="#7E1911"/>
<path id="Vector_19" d="M484.104 309.333C484.104 309.333 519.465 306.333 515.535 265.283C515.535 265.283 538.124 240.283 525.354 210.213C525.354 210.213 546.964 138.123 518.484 125.103C518.484 125.103 521.424 68.0329 481.154 57.0229C481.154 57.0229 466.424 21.0229 436.955 24.0229C436.955 24.0229 393.734 -13.9771 347.564 14.0229C347.564 14.0229 326.945 -0.977119 294.564 35.0229C294.564 35.0229 262.494 42.3929 238.174 73.0229C220.174 95.7129 215.684 119.863 213.034 134.123C210.71 146.664 209.835 159.431 210.424 172.173C270.244 172.663 301.614 163.573 319.334 154.553C323.444 152.473 336.674 145.373 343.524 150.643C349.374 155.153 344.795 164.273 347.445 182.643C350.685 205.093 359.545 205.743 359.725 223.193C359.904 240.643 351.054 244.833 355.304 256.733C359.554 268.633 371.915 274.883 375.165 276.553C382.665 280.403 386.014 279.453 395.584 282.773C404.112 285.759 412.079 290.153 419.154 295.773C428.154 302.994 438.735 307.983 450.032 310.333C461.329 312.683 473.022 312.326 484.154 309.293L484.104 309.333Z" fill="#351A11"/>
<path id="Vector_20" d="M326.695 651.833C287.281 695.499 263.685 751.144 259.695 809.833H366.695C365.638 778.388 369.69 746.979 378.695 716.833C383.205 701.833 395.745 664.623 424.695 633.833C434.935 622.943 444.695 615.543 457.695 613.833C471.545 612.013 483.025 617.463 488.695 620.713C488.695 620.713 518.155 642.273 521.005 653.053C521.005 653.253 521.655 655.053 521.665 655.053C521.675 655.053 516.545 638.943 511.715 623.883C488.855 607.603 469.715 604.093 456.715 603.883C392.395 602.883 324.805 679.943 296.715 798.123C292.049 738.226 311.08 678.891 349.715 632.883L343.715 630.883" fill="#9D1309"/>
<path id="Vector_21" d="M234.695 236.833C234.695 236.833 279.695 220.833 309.695 239.833" stroke="#3C1C0F" stroke-width="3" stroke-miterlimit="10"/>
<path id="Vector_22" d="M237.195 257.333C245.804 258.398 254.507 258.478 263.135 257.573L265.195 257.333C289.375 254.333 307.065 244.033 307.195 244.333C307.325 244.633 291.105 251.753 277.085 258.083C270.545 261.033 265.085 263.533 261.195 265.333" stroke="#3C1C0F" stroke-width="3" stroke-miterlimit="10"/>
<path id="Vector_23" d="M270.996 260.275C273.977 259.69 276.263 258.556 276.104 257.743C275.944 256.93 273.398 256.746 270.417 257.332C267.437 257.918 265.15 259.052 265.31 259.864C265.47 260.677 268.016 260.861 270.996 260.275Z" stroke="#3C1C0F" stroke-width="3" stroke-miterlimit="10"/>
<path id="Vector_24" d="M521.695 656.323C521.695 656.323 458.385 543.323 386.575 694.963C386.575 694.963 358.235 795.443 370.515 812.833" stroke="#F7EEDC" stroke-width="5" stroke-miterlimit="10"/>
</g>
</g>
</g>
</svg>
